<svg width="100" height="100" viewBox="0 0 100 100" fill="none" xmlns="http://www.w3.org/2000/svg">
<path d="M50.4043 89.8086C72.1817 89.8086 89.8575 72.1816 89.8575 50.4043C89.8575 28.627 72.1817 11 50.4043 11C28.6758 11 11 28.627 11 50.4043C11 72.1816 28.6758 89.8086 50.4043 89.8086ZM50.4043 82.3867C32.7286 82.3867 18.4707 68.0801 18.4707 50.4043C18.4707 32.7285 32.7286 18.4219 50.4043 18.4219C68.0801 18.4219 82.3868 32.7285 82.3868 50.4043C82.3868 68.0801 68.0801 82.3867 50.4043 82.3867Z" fill="black"/>
<path d="M37.7579 68.4707C39.3203 68.4707 40.4434 67.7383 41.127 65.7363L43.6661 58.0703H57.045L59.6329 65.7363C60.2676 67.7383 61.3907 68.4707 62.9532 68.4707C64.9063 68.4707 66.1758 67.25 66.1758 65.4922C66.1758 64.8086 66.0293 64.1738 65.6875 63.2461L55.2383 34.9258C54.4082 32.6797 52.6993 31.5078 50.3067 31.5078C47.9629 31.5078 46.3516 32.6797 45.4727 34.9258L35.0235 63.2461C34.7305 64.1738 34.584 64.8086 34.584 65.4922C34.584 67.25 35.8536 68.4707 37.7579 68.4707ZM45.375 52.8945L50.1114 38.7344H50.5996L55.336 52.8945H45.375Z" fill="black"/>
</svg>
