<svg width="100" height="100" viewBox="0 0 100 100" fill="none" xmlns="http://www.w3.org/2000/svg">
<path d="M78.8848 36.5508C78.8848 34.1582 76.9805 32.3515 74.8809 32.3515C72.7324 32.3515 70.877 34.2558 70.877 36.3554V47.8301L71.7071 67.0195L65.3106 59.5976L28.8848 23.1719C28.1035 22.3906 27.127 22 26.1016 22C23.9043 22 22 24.0019 22 26.1504C22 27.0781 22.4395 28.1035 23.2207 28.8847L59.5977 65.3105L66.9707 71.6582L47.6348 70.9258H36.3555C34.2559 70.9258 32.4004 72.7812 32.4004 74.8808C32.4004 76.9804 34.0606 78.8848 36.502 78.8848H74.5879C77.2246 78.8848 78.836 77.1269 78.836 74.5879L78.8848 36.5508Z" fill="black"/>
</svg>
