<svg width="100" height="100" viewBox="0 0 100 100" fill="none" xmlns="http://www.w3.org/2000/svg">
<path d="M80.2051 35.8936C80.2051 32.4512 77.544 29.7412 74.3457 29.7412C71.1475 29.7412 68.6573 32.4268 68.6573 35.8203V49.2725L69.2188 61.5283L63.2373 54.7412L30.4492 21.9775C29.1553 20.708 27.6416 20 26.0303 20C22.8809 20 20 22.9297 20 26.0547C20 27.6172 20.7324 29.1553 22.002 30.4492L54.7412 63.2373L61.5039 69.1943L49.1748 68.6816H35.8203C32.4268 68.6816 29.7412 71.1963 29.7412 74.3457C29.7412 77.5439 32.3535 80.2051 35.8448 80.2051H73.9551C77.7393 80.2051 80.2051 77.666 80.2051 73.9551V35.8936Z" fill="black"/>
</svg>
