<svg width="100" height="100" viewBox="0 0 100 100" fill="none" xmlns="http://www.w3.org/2000/svg">
<path d="M79.9965 36.4048C79.9965 33.3445 77.6109 30.9633 74.8125 30.9633C71.9964 30.9633 69.7372 33.3645 69.7372 36.2871V49.0194L70.3965 63.7991L64.264 56.7809L30.1518 22.6842C29.0445 21.5924 27.7263 21 26.3282 21C23.5254 21 21 23.592 21 26.3615C21 27.6929 21.6258 29.0444 22.7176 30.1517L56.781 64.2639L63.7658 70.3632L48.8863 69.7705H36.2871C33.3646 69.7705 30.9812 72.0452 30.9812 74.8125C30.9812 77.6108 33.2469 79.9965 36.356 79.9965H74.4574C77.824 79.9965 79.9787 77.7418 79.9787 74.4574L79.9965 36.4048Z" fill="black"/>
</svg>
