<svg width="100" height="100" viewBox="0 0 100 100" fill="none" xmlns="http://www.w3.org/2000/svg">
<path d="M26.4512 85.1914H72.6914C81.041 85.1914 85.1426 81.0899 85.1426 72.8867V26.3047C85.1426 18.1016 81.041 14 72.6914 14H26.4512C18.1504 14 14 18.1016 14 26.3047V72.8867C14 81.0899 18.1504 85.1914 26.4512 85.1914ZM26.5489 78.1113C23.0332 78.1113 21.0313 76.207 21.0313 72.5449V26.6465C21.0313 22.9356 23.0332 21.0801 26.5489 21.0801H72.5938C76.1094 21.0801 78.1114 22.9356 78.1114 26.6465V72.5449C78.1114 76.207 76.1094 78.1113 72.5938 78.1113H26.5489Z" fill="black"/>
<path d="M35.6309 31.9199L26.5 41.2461C26.0606 41.832 25.6699 42.6133 25.6699 43.2481C25.6699 44.8594 26.8418 46.0313 28.4532 46.0313C29.1856 46.0313 29.8692 45.6895 30.4063 45.1524L33.9707 41.4414L34.8985 40.3184L34.8496 41.832V65.416C34.8496 66.9785 36.0215 68.1504 37.6328 68.1504C39.293 68.1504 40.4649 66.9785 40.4649 65.416V41.832L40.3672 40.3184L41.3438 41.4414L44.9571 45.2012C45.4453 45.7383 46.1289 46.0313 46.8614 46.0313C48.4727 46.0313 49.5957 44.9082 49.5957 43.2481C49.5957 42.5645 49.2539 41.7344 48.7656 41.2461L39.7324 31.9199C38.6582 30.8457 36.9004 30.6504 35.6309 31.9199ZM63.6094 67.2715L72.5938 57.9453C73.1309 57.457 73.4727 56.627 73.4727 55.9922C73.4727 54.332 72.3496 53.209 70.6895 53.209C69.9571 53.209 69.2246 53.502 68.7852 53.9903L65.1719 57.75L64.2442 58.8242L64.293 57.3594V33.8242C64.293 32.2129 63.1211 31.041 61.5098 31.041C59.8985 31.041 58.6778 32.2129 58.6778 33.8242V57.4082L58.7754 58.8731L57.7989 57.75L54.2344 53.9903C53.6973 53.502 53.0137 53.209 52.2813 53.209C50.6211 53.209 49.5469 54.332 49.5469 55.9922C49.5469 56.5781 49.8887 57.4082 50.3282 57.9453L59.4102 67.2715C60.3867 68.3457 62.3887 68.4922 63.6094 67.2715Z" fill="black"/>
</svg>
