<svg width="100" height="100" viewBox="0 0 100 100" fill="none" xmlns="http://www.w3.org/2000/svg">
<path d="M86.584 75.1426C88.3906 73.4825 88.3418 70.8946 86.584 69.2344L66.8086 50.045C66.0762 49.2637 64.9043 48.8243 63.9766 48.8243C61.6328 48.8243 60.0703 50.4356 60.0703 52.7305C60.0703 53.8536 60.461 54.6836 61.1446 55.4161L69.0059 62.8868L75.9395 68.6973L66.9063 68.2579H16.9551C14.6602 68.2579 13 69.918 13 72.2129C13 74.5079 14.6602 76.168 16.9551 76.168H66.9063L75.9395 75.7286L69.0059 81.4903L61.1446 89.0098C60.461 89.7422 60.0703 90.5723 60.0703 91.6953C60.0703 93.9903 61.6328 95.6016 63.9766 95.6016C64.9043 95.6016 66.0762 95.1133 66.8086 94.3809L86.584 75.1426Z" fill="black"/>
<path d="M14.3184 24.459C12.5605 26.1192 12.6094 28.7071 14.3184 30.3184L34.0938 49.5567C34.8262 50.2891 35.9981 50.7774 36.9258 50.7774C39.2696 50.7774 40.8321 49.1661 40.8321 46.8711C40.8321 45.7481 40.4414 44.918 39.7578 44.1856L31.8965 36.6661L24.9629 30.9043L33.9961 31.3438H83.9473C86.2422 31.3438 87.9024 29.6836 87.9024 27.3887C87.9024 25.0938 86.2422 23.4336 83.9473 23.4336H33.9961L24.9629 23.8731L31.8965 18.1114L39.7578 10.5918C40.4414 9.8594 40.8321 9.0293 40.8321 7.9063C40.8321 5.6114 39.2696 4 36.9258 4C35.9981 4 34.8262 4.4883 34.0938 5.2207L14.3184 24.459Z" fill="black"/>
</svg>
