<svg width="100" height="100" viewBox="0 0 100 100" fill="none" xmlns="http://www.w3.org/2000/svg">
<path d="M26.4512 85.1914H72.6914C81.041 85.1914 85.1426 81.0899 85.1426 72.8867V26.3047C85.1426 18.1016 81.041 14 72.6914 14H26.4512C18.1504 14 14 18.1016 14 26.3047V72.8867C14 81.0899 18.1504 85.1914 26.4512 85.1914ZM26.5489 78.1113C23.0332 78.1113 21.0313 76.207 21.0313 72.5449V26.6465C21.0313 22.9356 23.0332 21.0801 26.5489 21.0801H72.5938C76.1094 21.0801 78.1114 22.9356 78.1114 26.6465V72.5449C78.1114 76.207 76.1094 78.1113 72.5938 78.1113H26.5489Z" fill="black"/>
<path d="M49.6446 30.1133C48.7168 30.1133 47.9844 30.4063 47.1055 31.2852L34.5567 43.2481C33.9219 43.9317 33.5313 44.6153 33.5313 45.543C33.5313 47.3496 34.8496 48.6192 36.6563 48.6192C37.5352 48.6192 38.4629 48.2774 39.0489 47.5938L44.4199 41.7344L46.4219 39.6348L46.1289 45.4453V65.6113C46.1289 67.418 47.7403 68.9805 49.6446 68.9805C51.5 68.9805 53.1114 67.418 53.1114 65.6113V45.4453L52.8184 39.6348L54.8203 41.7344L60.1914 47.5938C60.7774 48.2774 61.6563 48.6192 62.5352 48.6192C64.3418 48.6192 65.709 47.3496 65.709 45.543C65.709 44.6153 65.3184 43.9317 64.6836 43.2481L52.1348 31.2852C51.2559 30.4063 50.5235 30.1133 49.6446 30.1133Z" fill="black"/>
</svg>
