<svg width="100" height="100" viewBox="0 0 100 100" fill="none" xmlns="http://www.w3.org/2000/svg">
<path d="M79.9965 64.5917L79.9787 26.5057C79.9787 23.2547 77.824 21 74.4574 21H36.356C33.2469 21 30.9812 23.3856 30.9812 26.184C30.9812 28.9512 33.3646 31.1926 36.2871 31.1926H48.8863L63.7658 30.6333L56.781 36.6992L22.7176 70.8447C21.6258 71.952 21 73.3035 21 74.6349C21 77.3712 23.5254 79.9965 26.3282 79.9965C27.7263 79.9965 29.0445 79.404 30.1518 78.3122L64.264 44.1822L70.3965 37.1973L69.7372 51.977V64.7093C69.7372 67.5986 71.9964 70.0331 74.8125 70.0331C77.6109 70.0331 79.9965 67.6519 79.9965 64.5917Z" fill="black"/>
</svg>
