<svg width="100" height="100" viewBox="0 0 100 100" fill="none" xmlns="http://www.w3.org/2000/svg">
<path d="M79.5938 53.2129C79.5938 51.0644 77.9824 49.4043 75.7852 49.4043C74.7598 49.4043 73.7344 49.7461 73.0508 50.4785L66.0684 57.2168L51.2735 73.6718L53.7637 74.5508L54.252 62.539V13.8574C54.252 11.5625 52.5918 10 50.2969 10C48.002 10 46.3418 11.5625 46.3418 13.8574V62.539L46.8301 74.5508L49.3692 73.6718L34.5254 57.2168L27.543 50.4785C26.8594 49.7461 25.834 49.4043 24.8086 49.4043C22.6114 49.4043 21 51.0644 21 53.2129C21 54.2871 21.3906 55.2148 22.2207 56.0937L47.3672 81.289C48.1973 82.2168 49.2227 82.6562 50.2969 82.6562C51.3711 82.6562 52.3965 82.2168 53.2266 81.289L78.3731 56.0937C79.2032 55.2148 79.5938 54.2871 79.5938 53.2129ZM79.5938 86.6113C79.5938 84.3164 78.0313 82.6562 75.7852 82.6562H24.9063C22.6114 82.6562 21 84.3164 21 86.6113C21 88.9062 22.6114 90.5176 24.9063 90.5176H75.7852C78.0313 90.5176 79.5938 88.9062 79.5938 86.6113Z" fill="black"/>
</svg>
