<svg width="100" height="100" viewBox="0 0 100 100" fill="none" xmlns="http://www.w3.org/2000/svg">
<path d="M26.4512 85.1914H72.6914C81.041 85.1914 85.1426 81.0899 85.1426 72.8867V26.3047C85.1426 18.1016 81.041 14 72.6914 14H26.4512C18.1504 14 14 18.1016 14 26.3047V72.8867C14 81.0899 18.1504 85.1914 26.4512 85.1914ZM26.5489 78.1113C23.0332 78.1113 21.0313 76.207 21.0313 72.5449V26.6465C21.0313 22.9356 23.0332 21.0801 26.5489 21.0801H72.5938C76.1094 21.0801 78.1114 22.9356 78.1114 26.6465V72.5449C78.1114 76.207 76.1094 78.1113 72.5938 78.1113H26.5489Z" fill="black"/>
<path d="M49.6446 68.9805C50.5235 68.9805 51.2559 68.6875 52.1348 67.8086L64.6836 55.8457C65.3184 55.1621 65.709 54.4785 65.709 53.5508C65.709 51.7442 64.3418 50.4746 62.5352 50.4746C61.6563 50.4746 60.7774 50.8164 60.1914 51.5L54.8203 57.3594L52.8184 59.459L53.1114 53.6485V33.4824C53.1114 31.6758 51.5 30.1133 49.6446 30.1133C47.7403 30.1133 46.1289 31.6758 46.1289 33.4824V53.6485L46.4219 59.459L44.4199 57.3594L39.0489 51.5C38.4629 50.8164 37.5352 50.4746 36.6563 50.4746C34.8496 50.4746 33.5313 51.7442 33.5313 53.5508C33.5313 54.4785 33.9219 55.1621 34.5567 55.8457L47.1055 67.8086C47.9844 68.6875 48.7168 68.9805 49.6446 68.9805Z" fill="black"/>
</svg>
