<svg width="100" height="100" viewBox="0 0 100 100" fill="none" xmlns="http://www.w3.org/2000/svg">
<path d="M78.8848 64.334L78.836 26.248C78.836 23.7578 77.2246 22 74.5879 22H36.502C34.0606 22 32.4004 23.9043 32.4004 26.0039C32.4004 28.1035 34.2559 29.9101 36.3555 29.9101H47.6348L66.9707 29.2265L59.5977 35.5254L23.2207 72C22.4395 72.7812 22 73.8066 22 74.7344C22 76.834 23.9043 78.8848 26.1016 78.8848C27.127 78.8848 28.1035 78.4941 28.8848 77.7129L65.3106 41.2383L71.7071 33.8652L70.877 53.0547V64.5293C70.877 66.5801 72.7324 68.5332 74.8809 68.5332C76.9805 68.5332 78.8848 66.7265 78.8848 64.334Z" fill="black"/>
</svg>
