<svg width="100" height="100" viewBox="0 0 100 100" fill="none" xmlns="http://www.w3.org/2000/svg">
<path d="M80.2051 64.3115V26.2256C80.2051 22.5391 77.7393 20 73.9551 20H35.8448C32.3535 20 29.7412 22.6611 29.7412 25.8594C29.7412 29.0088 32.4268 31.499 35.8203 31.499H49.1748L61.5039 31.0107L54.7412 36.9434L22.002 69.7559C20.7324 71.0498 20 72.5879 20 74.1504C20 77.251 22.8809 80.2051 26.0303 80.2051C27.6416 80.2051 29.1553 79.4971 30.4492 78.2275L63.2373 45.4394L69.2188 38.6768L68.6573 50.9326V64.3848C68.6573 67.7539 71.1475 70.4639 74.3457 70.4639C77.544 70.4639 80.2051 67.7539 80.2051 64.3115Z" fill="black"/>
</svg>
