<svg width="100" height="100" viewBox="0 0 100 100" fill="none" xmlns="http://www.w3.org/2000/svg">
<path d="M22 36.5508V74.5879C22 77.1269 23.6602 78.8848 26.2481 78.8848H64.334C66.8242 78.8848 68.4844 76.9804 68.4844 74.8808C68.4844 72.7812 66.5801 70.9258 64.5293 70.9258H53.25L33.9141 71.6582L41.2383 65.3105L77.6641 28.8847C78.4453 28.1035 78.8848 27.0781 78.8848 26.1504C78.8848 24.0019 76.9317 22 74.7344 22C73.7578 22 72.7813 22.3906 72 23.1719L35.5254 59.5976L29.1289 67.0195L29.959 47.8301V36.3554C29.959 34.2558 28.1524 32.3515 26.0039 32.3515C23.8555 32.3515 22 34.1582 22 36.5508Z" fill="black"/>
</svg>
