<svg width="100" height="100" viewBox="0 0 100 100" fill="none" xmlns="http://www.w3.org/2000/svg">
<path d="M93.9665 41.9253C94.0153 39.4351 92.1599 37.6773 89.7673 37.7749L62.2282 38.1167C61.154 38.1167 60.031 38.6538 59.3474 39.2886C57.6872 40.9487 57.736 43.1948 59.3474 44.8062C60.1775 45.5874 61.0075 45.9292 61.9841 45.9292L72.8728 45.6851L81.8571 44.9038L75.1677 50.9585L39.865 86.2612C38.2048 87.9214 38.2048 90.2163 39.865 91.8764C41.4763 93.4878 43.7712 93.4878 45.4314 91.8764L80.7341 56.5249L86.8376 49.8843L86.0075 58.8198L85.8122 69.7085C85.8122 70.6851 86.1052 71.6128 86.9353 72.3452C88.4978 74.0054 90.7439 74.0542 92.404 72.3452C93.0876 71.7105 93.5759 70.5874 93.5759 69.4644L93.9665 41.9253Z" fill="black"/>
<path d="M7.0036 57.1597C6.90595 59.6011 8.81028 61.4077 11.154 61.3101L38.7419 60.9683C39.8161 60.9683 40.9392 60.4312 41.6228 59.7964C43.2829 58.1362 43.2341 55.8902 41.6228 54.2788C40.8415 53.4976 39.9626 53.1558 38.9372 53.1558L28.0974 53.3999L19.113 54.1812L25.8025 48.1265L61.1052 12.7749C62.7653 11.1636 62.7653 8.81977 61.1052 7.20847C59.4939 5.59718 57.1501 5.59718 55.5388 7.20847L20.1872 42.5601L14.1325 49.2007L14.9138 40.2163L15.1579 29.3765C15.1579 28.3999 14.8161 27.4722 14.0349 26.6909C12.4235 25.0796 10.1775 25.0308 8.56608 26.6909C7.88248 27.3745 7.34538 28.4976 7.34538 29.6206L7.0036 57.1597Z" fill="black"/>
</svg>
