<svg width="100" height="100" viewBox="0 0 100 100" fill="none" xmlns="http://www.w3.org/2000/svg">
<path d="M50.3555 18.1289C52.3086 18.1289 53.92 16.5176 53.92 14.5645C53.92 12.6114 52.3086 11 50.3555 11C48.4024 11 46.7911 12.6114 46.7911 14.5645C46.7911 16.5176 48.4024 18.1289 50.3555 18.1289ZM61.3418 19.9356C63.295 19.9356 64.9063 18.3243 64.9063 16.3711C64.9063 14.418 63.295 12.8067 61.3418 12.8067C59.3887 12.8067 57.7774 14.418 57.7774 16.3711C57.7774 18.3243 59.3887 19.9356 61.3418 19.9356ZM71.3516 24.9649C73.3047 24.9649 74.9161 23.3536 74.9161 21.4004C74.9161 19.4473 73.3047 17.836 71.3516 17.836C69.3985 17.836 67.7383 19.4473 67.7383 21.4004C67.7383 23.3536 69.3985 24.9649 71.3516 24.9649ZM79.2129 32.875C81.1661 32.875 82.8262 31.2637 82.8262 29.3106C82.8262 27.3575 81.1661 25.6973 79.2129 25.6973C77.2598 25.6973 75.6485 27.3575 75.6485 29.3106C75.6485 31.2637 77.2598 32.875 79.2129 32.875ZM84.2422 42.6895C86.1953 42.6895 87.8067 41.0782 87.8067 39.125C87.8067 37.1719 86.1953 35.5606 84.2422 35.5606C82.2891 35.5606 80.6778 37.1719 80.6778 39.125C80.6778 41.0782 82.2891 42.6895 84.2422 42.6895ZM86.1465 53.7246C88.0996 53.7246 89.711 52.1133 89.711 50.1602C89.711 48.2071 88.0996 46.5957 86.1465 46.5957C84.1934 46.5957 82.5821 48.2071 82.5821 50.1602C82.5821 52.1133 84.1934 53.7246 86.1465 53.7246ZM84.2422 64.7598C86.1953 64.7598 87.8067 63.1485 87.8067 61.1953C87.8067 59.2422 86.1953 57.6309 84.2422 57.6309C82.2891 57.6309 80.6778 59.2422 80.6778 61.1953C80.6778 63.1485 82.2891 64.7598 84.2422 64.7598ZM79.2129 74.6231C81.1661 74.6231 82.8262 73.0118 82.8262 71.0586C82.8262 69.1055 81.1661 67.4453 79.2129 67.4453C77.2598 67.4453 75.6485 69.1055 75.6485 71.0586C75.6485 73.0118 77.2598 74.6231 79.2129 74.6231ZM71.3516 82.4844C73.3047 82.4844 74.9161 80.8731 74.9161 78.92C74.9161 76.9668 73.3047 75.3555 71.3516 75.3555C69.3985 75.3555 67.7383 76.9668 67.7383 78.92C67.7383 80.8731 69.3985 82.4844 71.3516 82.4844ZM61.3418 87.5137C63.295 87.5137 64.9063 85.9024 64.9063 83.9493C64.9063 81.9961 63.295 80.3848 61.3418 80.3848C59.3887 80.3848 57.7774 81.9961 57.7774 83.9493C57.7774 85.9024 59.3887 87.5137 61.3418 87.5137ZM50.3555 89.3204C52.3086 89.3204 53.92 87.709 53.92 85.7559C53.92 83.8028 52.3086 82.1914 50.3555 82.1914C48.4024 82.1914 46.7911 83.8028 46.7911 85.7559C46.7911 87.709 48.4024 89.3204 50.3555 89.3204ZM39.3692 87.5137C41.3223 87.5137 42.9825 85.9024 42.9825 83.9493C42.9825 81.9961 41.3223 80.3848 39.3692 80.3848C37.4161 80.3848 35.8047 81.9961 35.8047 83.9493C35.8047 85.9024 37.4161 87.5137 39.3692 87.5137ZM29.4082 82.4844C31.3614 82.4844 32.9727 80.8731 32.9727 78.92C32.9727 76.9668 31.3614 75.3555 29.4082 75.3555C27.4551 75.3555 25.8438 76.9668 25.8438 78.92C25.8438 80.8731 27.4551 82.4844 29.4082 82.4844ZM21.4981 74.6231C23.4512 74.6231 25.0625 73.0118 25.0625 71.0586C25.0625 69.1055 23.4512 67.4453 21.4981 67.4453C19.545 67.4453 17.9336 69.1055 17.9336 71.0586C17.9336 73.0118 19.545 74.6231 21.4981 74.6231ZM16.4688 64.7598C18.4219 64.7598 20.0332 63.1485 20.0332 61.1953C20.0332 59.2422 18.4219 57.6309 16.4688 57.6309C14.5157 57.6309 12.9043 59.2422 12.9043 61.1953C12.9043 63.1485 14.5157 64.7598 16.4688 64.7598ZM14.5645 53.7246C16.5176 53.7246 18.1289 52.1133 18.1289 50.1602C18.1289 48.2071 16.5176 46.5957 14.5645 46.5957C12.6113 46.5957 11 48.2071 11 50.1602C11 52.1133 12.6113 53.7246 14.5645 53.7246ZM16.4688 42.6895C18.4219 42.6895 20.0332 41.0782 20.0332 39.125C20.0332 37.1719 18.4219 35.5606 16.4688 35.5606C14.5157 35.5606 12.9043 37.1719 12.9043 39.125C12.9043 41.0782 14.5157 42.6895 16.4688 42.6895ZM21.4981 32.875C23.4512 32.875 25.0625 31.2637 25.0625 29.3106C25.0625 27.3575 23.4512 25.6973 21.4981 25.6973C19.545 25.6973 17.9336 27.3575 17.9336 29.3106C17.9336 31.2637 19.545 32.875 21.4981 32.875ZM29.4082 24.9649C31.3614 24.9649 32.9727 23.3536 32.9727 21.4004C32.9727 19.4473 31.3614 17.836 29.4082 17.836C27.4551 17.836 25.8438 19.4473 25.8438 21.4004C25.8438 23.3536 27.4551 24.9649 29.4082 24.9649ZM39.3692 19.9356C41.3223 19.9356 42.9825 18.3243 42.9825 16.3711C42.9825 14.418 41.3223 12.8067 39.3692 12.8067C37.4161 12.8067 35.8047 14.418 35.8047 16.3711C35.8047 18.3243 37.4161 19.9356 39.3692 19.9356Z" fill="black"/>
<path d="M50.4043 69.5938C51.2832 69.5938 52.0645 69.3008 52.9434 68.4219L65.4922 56.459C66.127 55.7754 66.5176 55.0918 66.5176 54.1641C66.5176 52.3575 65.1504 51.0879 63.295 51.0879C62.4649 51.0879 61.586 51.4297 60.9512 52.1133L55.5801 57.9727L53.627 60.0723L53.8711 54.2618V34.0957C53.8711 32.2891 52.3086 30.7266 50.4043 30.7266C48.5489 30.7266 46.9375 32.2891 46.9375 34.0957V54.2618L47.2305 60.0723L45.2286 57.9727L39.8575 52.1133C39.2227 51.4297 38.295 51.0879 37.4649 51.0879C35.6094 51.0879 34.2911 52.3575 34.2911 54.1641C34.2911 55.0918 34.6817 55.7754 35.3653 56.459L47.8653 68.4219C48.7442 69.3008 49.5254 69.5938 50.4043 69.5938Z" fill="black"/>
</svg>
