<svg width="100" height="100" viewBox="0 0 100 100" fill="none" xmlns="http://www.w3.org/2000/svg">
<path fill-rule="evenodd" clip-rule="evenodd" d="M74.6987 88H25.3013C16.4338 88 12 83.6214 12 74.8642V25.1358C12 16.3786 16.4338 12 25.3013 12H74.6987C83.6183 12 88 16.3786 88 25.1358V74.8642C88 83.6214 83.6183 88 74.6987 88ZM32.291 50.9383C31.8215 51.4596 31.6128 52.1372 31.6128 52.7106C31.6128 53.8574 32.4996 54.7435 33.6993 54.7435H47.783L40.3239 74.8642C39.1764 77.7833 42.3582 79.3471 44.236 77.0014L67.083 48.332C67.5525 47.8107 67.8132 47.1331 67.8132 46.6119C67.8132 45.4129 66.9265 44.5789 65.7268 44.5789H51.5909L59.1022 24.4582C60.1976 21.5392 57.0679 19.9753 55.19 22.3211L32.291 50.9383Z" fill="black"/>
</svg>
