<svg width="100" height="100" viewBox="0 0 100 100" fill="none" xmlns="http://www.w3.org/2000/svg">
<path d="M24.4512 85.1914H76.1114C84.461 85.1914 88.5625 81.0899 88.5625 72.8867V26.3047C88.5625 18.1016 84.461 14 76.1114 14H24.4512C16.1504 14 12 18.1016 12 26.3047V72.8867C12 81.0899 16.1504 85.1914 24.4512 85.1914ZM23.7676 78.1113C20.7403 78.1113 19.0313 76.5 19.0313 73.3262V36.6074C19.0313 33.4336 20.7403 31.8223 23.7676 31.8223H76.7461C79.7735 31.8223 81.5313 33.4336 81.5313 36.6074V73.3262C81.5313 76.5 79.7735 78.1113 76.7461 78.1113H23.7676ZM42.8594 45.6406H45.1055C46.5703 45.6406 47.0586 45.1524 47.0586 43.7363V41.4903C47.0586 40.0742 46.5703 39.586 45.1055 39.586H42.8594C41.4434 39.586 40.9551 40.0742 40.9551 41.4903V43.7363C40.9551 45.1524 41.4434 45.6406 42.8594 45.6406ZM55.4571 45.6406H57.7032C59.1192 45.6406 59.6074 45.1524 59.6074 43.7363V41.4903C59.6074 40.0742 59.1192 39.586 57.7032 39.586H55.4571C53.9922 39.586 53.5039 40.0742 53.5039 41.4903V43.7363C53.5039 45.1524 53.9922 45.6406 55.4571 45.6406ZM68.0059 45.6406H70.252C71.668 45.6406 72.2051 45.1524 72.2051 43.7363V41.4903C72.2051 40.0742 71.668 39.586 70.252 39.586H68.0059C66.541 39.586 66.0528 40.0742 66.0528 41.4903V43.7363C66.0528 45.1524 66.541 45.6406 68.0059 45.6406ZM30.3106 57.9942H32.5567C34.0215 57.9942 34.5098 57.5059 34.5098 56.0899V53.8438C34.5098 52.4278 34.0215 51.9395 32.5567 51.9395H30.3106C28.8946 51.9395 28.3574 52.4278 28.3574 53.8438V56.0899C28.3574 57.5059 28.8946 57.9942 30.3106 57.9942ZM42.8594 57.9942H45.1055C46.5703 57.9942 47.0586 57.5059 47.0586 56.0899V53.8438C47.0586 52.4278 46.5703 51.9395 45.1055 51.9395H42.8594C41.4434 51.9395 40.9551 52.4278 40.9551 53.8438V56.0899C40.9551 57.5059 41.4434 57.9942 42.8594 57.9942ZM55.4571 57.9942H57.7032C59.1192 57.9942 59.6074 57.5059 59.6074 56.0899V53.8438C59.6074 52.4278 59.1192 51.9395 57.7032 51.9395H55.4571C53.9922 51.9395 53.5039 52.4278 53.5039 53.8438V56.0899C53.5039 57.5059 53.9922 57.9942 55.4571 57.9942ZM68.0059 57.9942H70.252C71.668 57.9942 72.2051 57.5059 72.2051 56.0899V53.8438C72.2051 52.4278 71.668 51.9395 70.252 51.9395H68.0059C66.541 51.9395 66.0528 52.4278 66.0528 53.8438V56.0899C66.0528 57.5059 66.541 57.9942 68.0059 57.9942ZM30.3106 70.3477H32.5567C34.0215 70.3477 34.5098 69.8594 34.5098 68.4434V66.1973C34.5098 64.7813 34.0215 64.293 32.5567 64.293H30.3106C28.8946 64.293 28.3574 64.7813 28.3574 66.1973V68.4434C28.3574 69.8594 28.8946 70.3477 30.3106 70.3477ZM42.8594 70.3477H45.1055C46.5703 70.3477 47.0586 69.8594 47.0586 68.4434V66.1973C47.0586 64.7813 46.5703 64.293 45.1055 64.293H42.8594C41.4434 64.293 40.9551 64.7813 40.9551 66.1973V68.4434C40.9551 69.8594 41.4434 70.3477 42.8594 70.3477ZM55.4571 70.3477H57.7032C59.1192 70.3477 59.6074 69.8594 59.6074 68.4434V66.1973C59.6074 64.7813 59.1192 64.293 57.7032 64.293H55.4571C53.9922 64.293 53.5039 64.7813 53.5039 66.1973V68.4434C53.5039 69.8594 53.9922 70.3477 55.4571 70.3477Z" fill="black"/>
</svg>
