<svg width="100" height="100" viewBox="0 0 100 100" fill="none" xmlns="http://www.w3.org/2000/svg">
<path d="M78.5879 85.7285H89.916C95.4334 85.7285 98.2654 83.043 98.2654 77.8672V21.8125C98.2654 16.6367 95.4334 14 89.916 14H78.5879C73.1192 14 70.2871 16.6367 70.2871 21.8125V77.8672C70.2871 83.043 73.1192 85.7285 78.5879 85.7285Z" fill="black"/>
<path d="M43.9688 85.7285H55.2969C60.8145 85.7285 63.6465 83.0429 63.6465 77.8672V33.0429C63.6465 27.8672 60.8145 25.2305 55.2969 25.2305H43.9688C38.5 25.2305 35.6192 27.8672 35.6192 33.0429V77.8672C35.6192 83.0429 38.5 85.7285 43.9688 85.7285Z" fill="black"/>
<path d="M9.30078 85.7285H20.6289C26.1465 85.7285 28.9785 83.043 28.9785 77.8672V44.2246C28.9785 39.0488 26.1465 36.4121 20.6289 36.4121H9.30078C3.83208 36.4121 1 39.0488 1 44.2246V77.8672C1 83.043 3.83208 85.7285 9.30078 85.7285Z" fill="black"/>
</svg>
