<svg width="100" height="100" viewBox="0 0 100 100" fill="none" xmlns="http://www.w3.org/2000/svg">
<path d="M42.1739 84.6524C44.9815 84.6524 47.1787 83.5782 48.6924 81.3077L84.0196 27.2793C85.1182 25.6436 85.5576 24.0811 85.5576 22.6407C85.5576 18.8077 82.6768 16 78.7217 16C76.0117 16 74.3272 16.9522 72.667 19.5645L42.003 68.0752L26.3535 48.4952C24.8399 46.6641 23.1797 45.834 20.8604 45.834C16.9053 45.834 14 48.6905 14 52.5723C14 54.3057 14.5371 55.8194 16.002 57.5284L35.8018 81.6006C37.5596 83.7002 39.5615 84.6524 42.1739 84.6524Z" fill="black"/>
</svg>
