<svg width="100" height="100" viewBox="0 0 100 100" fill="none" xmlns="http://www.w3.org/2000/svg">
<path fill-rule="evenodd" clip-rule="evenodd" d="M89.8575 50.4043C89.8575 72.1328 72.1817 89.8086 50.4043 89.8086C28.6758 89.8086 11 72.1328 11 50.4043C11 28.6758 28.6758 11 50.4043 11C72.1817 11 89.8575 28.6758 89.8575 50.4043ZM42.2012 67.0547C43.3731 68.6172 44.5938 69.2031 46.1075 69.2031C47.5723 69.2031 48.8417 68.5195 49.7695 67.0547L67.1524 39.5156C67.7383 38.6367 68.2753 37.6113 68.2753 36.6348C68.2753 34.5352 66.5175 33.2656 64.5644 33.2656C63.3925 33.2656 62.2696 33.9492 61.4883 35.3164L45.912 60.5117L38.8808 51.1367C37.8067 49.6719 36.83 49.2812 35.6093 49.2812C33.5585 49.2812 32.0938 50.8926 32.0938 52.8945C32.0938 53.8711 32.4355 54.8477 33.1191 55.6777L42.2012 67.0547Z" fill="black"/>
</svg>
