<svg width="100" height="100" viewBox="0 0 100 100" fill="none" xmlns="http://www.w3.org/2000/svg">
<path d="M42.3385 83.7282C44.8173 83.7282 46.7657 82.7428 48.1195 80.6945L83.5444 25.8397C84.5452 24.3372 84.9314 22.9702 84.9314 21.6809C84.9314 18.3722 82.5304 16 79.1263 16C76.7629 16 75.3361 16.8189 73.8892 19.1024L42.1587 69.5771L25.7717 48.4507C24.4002 46.7352 22.9533 45.9762 20.8917 45.9762C17.4876 45.9762 15 48.415 15 51.7725C15 53.2482 15.5016 54.6197 16.7354 56.0976L36.5974 80.8453C38.213 82.8204 39.9839 83.7282 42.3385 83.7282Z" fill="black"/>
</svg>
