<svg width="100" height="100" viewBox="0 0 100 100" fill="none" xmlns="http://www.w3.org/2000/svg">
<path d="M41.8789 83.1133C43.7832 83.1133 45.2969 82.2832 46.3711 80.6231L81.9668 24.3242C82.7969 23.0547 83.0899 22.0293 83.0899 21.0039C83.0899 18.6113 81.5274 17 79.086 17C77.3282 17 76.3516 17.586 75.2774 19.2949L41.6836 73.2012L24.0078 49.3731C22.8848 47.8594 21.8106 47.2246 20.1992 47.2246C17.7578 47.2246 16 48.9336 16 51.375C16 52.4004 16.4395 53.5234 17.2696 54.5977L37.2403 80.5254C38.6074 82.2832 39.9746 83.1133 41.8789 83.1133Z" fill="black"/>
</svg>
