<svg width="100" height="100" viewBox="0 0 100 100" fill="none" xmlns="http://www.w3.org/2000/svg">
<path d="M31 50.0332C31 51.1074 31.4395 52.084 32.2207 52.9141L62.3965 82.8945C63.1289 83.6758 64.1543 84.0664 65.2774 84.0664C67.5723 84.0664 69.2813 82.3574 69.2813 80.0625C69.2813 78.9394 68.8418 77.9629 68.1094 77.1816L40.8633 50.0332L68.1094 22.8848C68.8418 22.1035 69.2813 21.0781 69.2813 20.0039C69.2813 17.709 67.5723 16 65.2774 16C64.1543 16 63.1289 16.3906 62.3965 17.1719L32.2207 47.1523C31.4395 47.9824 31 48.959 31 50.0332Z" fill="black"/>
</svg>
