<svg width="100" height="100" viewBox="0 0 100 100" fill="none" xmlns="http://www.w3.org/2000/svg">
<path d="M69 49.9668C69 48.8926 68.5605 47.916 67.7793 47.0859L37.6035 17.1055C36.8711 16.3242 35.8457 15.9336 34.7226 15.9336C32.4277 15.9336 30.7187 17.6426 30.7187 19.9375C30.7187 21.0606 31.1582 22.0371 31.8906 22.8184L59.1367 49.9668L31.8906 77.1152C31.1582 77.8965 30.7187 78.9219 30.7187 79.9961C30.7187 82.291 32.4277 84 34.7226 84C35.8457 84 36.8711 83.6094 37.6035 82.8281L67.7793 52.8477C68.5605 52.0176 69 51.041 69 49.9668Z" fill="black"/>
</svg>
