<svg width="100" height="100" viewBox="0 0 100 100" fill="none" xmlns="http://www.w3.org/2000/svg">
<path d="M49.5371 13C48.4141 13 47.4375 13.4394 46.6074 14.2695L25.1231 34.7773C24.4883 35.4609 24 36.3398 24 37.6582C24 39.9531 25.7578 41.7109 28.0528 41.7109C28.9805 41.7109 30.0059 41.4668 30.9336 40.539L49.5371 22.3261L68.0918 40.539C69.0196 41.4179 70.0938 41.7109 71.0215 41.7109C73.3164 41.7109 75.0254 39.9531 75.0254 37.6582C75.0254 36.3398 74.586 35.4609 73.9024 34.7773L52.4668 14.2695C51.5879 13.4394 50.6114 13 49.5371 13ZM49.5371 87.414C50.6114 87.414 51.5879 86.9746 52.4668 86.1445L73.9024 65.6367C74.586 64.9531 75.0254 64.0742 75.0254 62.7558C75.0254 60.4609 73.3164 58.7031 71.0215 58.7031C70.0938 58.7031 69.0196 58.9961 68.0918 59.875L49.5371 78.0879L30.9336 59.875C30.0059 58.9472 28.9805 58.7031 28.0528 58.7031C25.7578 58.7031 24 60.4609 24 62.7558C24 64.0742 24.4883 64.9531 25.1231 65.6367L46.6074 86.1445C47.4375 86.9746 48.4141 87.414 49.5371 87.414Z" fill="black"/>
</svg>
