<svg width="24" height="24" viewBox="0 0 24 24" fill="none" xmlns="http://www.w3.org/2000/svg">
<path fill-rule="evenodd" clip-rule="evenodd" d="M12.1696 6.629C12.1696 6.629 13.3957 6 14.3223 6C15.0599 6.01952 15.7768 6.22443 16.4028 6.59111V12.4561C15.753 12.1625 15.0434 12.0063 14.3223 12C13.4518 12.0321 12.598 12.2399 11.8166 12.61C11.1012 13.0143 10.2961 13.2493 9.46761 13.2957C7.73381 13.2957 7.04028 12.3083 7.04028 12.3083L7.04028 6.648C7.04144 6.64902 7.73525 7.258 9.46761 7.258C10.4052 7.24012 11.3274 7.02544 12.1696 6.629ZM7.04028 5.30834L7.04028 5.30833L7.04028 5.29565H6V19.2957H7.04028L7.04028 13.5537C7.04028 13.5537 7.73381 14.258 9.46761 14.258C10.4052 14.2401 11.3274 14.0254 12.1696 13.629C12.1696 13.629 13.3957 13 14.3223 13C15.1739 13.0074 16.0095 13.2239 16.7496 13.629L17.4431 14.0693V13.0693L17.4431 13.0693V7.06933L17.4431 7.06933V6.06933L16.7496 5.629C16.0095 5.22392 15.1739 5.0074 14.3223 5C13.4518 5.03205 12.598 5.23989 11.8166 5.61C11.1012 6.01426 10.2961 6.24927 9.46761 6.29567C7.73541 6.29567 7.04157 5.31016 7.04028 5.30834Z" fill="black"/>
</svg>
