<svg width="24" height="24" viewBox="0 0 24 24" fill="none" xmlns="http://www.w3.org/2000/svg">
<path fill-rule="evenodd" clip-rule="evenodd" d="M15.8752 4L15.8505 9.01916C15.8505 9.01916 14.8937 8.7906 14.2298 9.15205C13.1716 9.72978 13.1781 10.5497 13.4118 11.1852C13.821 12.2982 16.8968 11.761 16.8968 9.61483V5.32157C16.8968 5.32157 18.3743 6.05577 18.4751 7.4295C18.5147 7.96781 18.2674 8.40328 18.0673 8.75564C17.8696 9.10393 17.7179 9.37102 17.935 9.57596C17.935 9.57596 19.1774 8.45439 19.2001 7.38133C19.2493 4.9847 17.4966 4 15.8759 4H15.8752ZM11.6494 19.9285H10.3941L9.71558 19.1847C9.1417 19.6872 8.40157 19.9694 7.63179 19.9793C6.32458 19.9793 5.33154 19.2142 5.33154 18.0299C5.33154 17.1485 5.88184 16.6073 6.63943 16.189C6.72424 16.1392 6.81415 16.0947 6.9088 16.0502C6.45961 15.5794 6.07047 15.1137 6.07047 14.4991C6.07047 13.6433 6.80872 12.9376 7.84179 12.9376C8.81482 12.9376 9.61312 13.5692 9.61312 14.5057C9.61312 15.3485 8.94917 15.8293 8.18581 16.2306L9.6389 17.8761C9.88655 17.3536 10.0021 16.7804 9.9758 16.205V15.9472H10.8643V16.2346C10.9083 17.0391 10.716 17.8392 10.3103 18.5402L11.6494 19.9285ZM16.7133 16.4688L14.2807 19.9687L13.0444 20L15.7783 16.3512L18.2858 12.9559H19.4868L16.7133 16.4688ZM12.3333 7.64839L9.33325 7.64921V11.6666H8.33325V7.64948L5 7.65039V6.65039H12.3333V7.64839ZM12.3333 4.6571H5V5.6571H12.3333V4.6571ZM16.842 18.2563C16.842 19.1964 17.3509 19.9416 18.2442 19.9416C19.1525 19.9416 19.6665 19.1715 19.6665 18.2662V18.1264C19.6665 17.1912 19.1426 16.4563 18.2541 16.4563C17.3655 16.4563 16.842 17.2015 16.842 18.1174V18.2563ZM14.1732 16.4439C13.2799 16.4439 12.771 15.6988 12.771 14.7586V14.6211C12.771 13.7051 13.2945 12.96 14.183 12.96C15.0716 12.96 15.5954 13.6948 15.5954 14.63V14.7686C15.5954 15.6739 15.0814 16.4439 14.1732 16.4439ZM7.20305 16.7413C7.27294 16.7018 7.34283 16.6669 7.41747 16.6323L9.13417 18.5187C8.74229 18.88 8.21778 19.0706 7.68006 19.0472C6.94147 19.0472 6.29517 18.7436 6.29517 17.9556C6.29483 17.3811 6.66395 17.0287 7.20305 16.7413ZM7.67766 15.695L7.67801 15.6953H7.67699L7.67766 15.695ZM8.71482 14.5505C8.71482 15.0955 8.28121 15.3928 7.67766 15.695C7.1541 15.1849 6.98454 14.8979 6.98454 14.5555C6.96815 14.2431 7.1287 13.9472 7.40225 13.7857C7.67581 13.6241 8.01797 13.6231 8.29249 13.7831C8.56701 13.9431 8.72933 14.238 8.71482 14.5505ZM17.627 18.1653C17.627 17.6247 17.8345 17.2261 18.2586 17.2261C18.6655 17.2261 18.8815 17.6025 18.8815 18.1742V18.2141C18.8815 18.7902 18.6472 19.1666 18.2542 19.1666C17.8521 19.1666 17.627 18.7812 17.627 18.2051V18.1653ZM14.188 13.7334C13.7659 13.7334 13.5591 14.1304 13.5591 14.6683V14.6699V14.7078C13.5591 15.2809 13.7835 15.6646 14.1836 15.6646C14.5752 15.6646 14.8082 15.2898 14.8082 14.7164V14.6769C14.8082 14.1081 14.5925 13.7334 14.188 13.7334Z" fill="black"/>
</svg>
