<svg width="24" height="24" viewBox="0 0 24 24" fill="none" xmlns="http://www.w3.org/2000/svg">
<path fill-rule="evenodd" clip-rule="evenodd" d="M14.2435 18.9893L14.1987 18.9883H14.2435V17.036L14.3491 16.1667C14.4949 15.0236 15.0723 13.9739 15.9691 13.221C17.0985 12.2331 17.719 10.8092 17.6632 9.33336C17.6632 6.39271 15.0476 4.00006 11.8333 4.00006C8.61901 4.00006 6.00346 6.39271 6.00346 9.33336C5.94769 10.8092 6.56816 12.2331 7.69755 13.221C8.59441 13.9739 9.17172 15.0236 9.31757 16.1667L9.42319 17.037V18.9893C9.43365 19.4314 9.77124 19.8014 10.2215 19.8643C10.7546 19.9481 11.2934 19.9934 11.8333 20C12.3733 19.9934 12.912 19.9481 13.4451 19.8643C13.8954 19.8014 14.233 19.4314 14.2435 18.9893ZM15.2808 12.4777C14.218 13.3696 13.52 14.6279 13.3337 15.9999H10.3326C10.1445 14.6244 9.44673 13.3682 8.36985 12.4642C7.48283 11.688 6.98684 10.5498 7.03212 9.33337C7.03212 6.95905 9.17354 5.00006 11.8332 5.00006C14.4928 5.00006 16.6343 6.95905 16.635 9.37008C16.6795 10.5498 16.1836 11.688 15.2808 12.4777ZM10.4519 17.037V16.9999H13.2145V18.8873C12.743 18.9575 12.2822 18.9945 11.8204 19.0001C11.3779 18.9944 10.913 18.9567 10.4516 18.8873L10.4519 17.037ZM12.5193 11.6667C12.5193 11.7193 12.5256 11.7705 12.5374 11.8196L11.8334 12.4508L11.1295 11.8197C11.1413 11.7706 11.1476 11.7194 11.1476 11.6667C11.1476 11.2985 10.8405 11.0001 10.4617 11.0001C10.0829 11.0001 9.77586 11.2985 9.77586 11.6667C9.77586 12.0349 10.0829 12.3334 10.4617 12.3334C10.5194 12.3334 10.5753 12.3265 10.6288 12.3135L11.4904 13.0859V15.3333H12.1762V13.086L13.038 12.3134C13.0915 12.3265 13.1475 12.3334 13.2052 12.3334C13.5839 12.3334 13.891 12.0349 13.891 11.6667C13.891 11.2985 13.5839 11.0001 13.2052 11.0001C12.8264 11.0001 12.5193 11.2985 12.5193 11.6667ZM10.4617 18.3334H11.8335V17.6667H10.4617V18.3334Z" fill="black"/>
</svg>
