<svg width="24" height="24" viewBox="0 0 24 24" fill="none" xmlns="http://www.w3.org/2000/svg">
<path fill-rule="evenodd" clip-rule="evenodd" d="M19.4667 13.904C19.482 14.0819 18.9106 14.2868 18.9106 14.2868L20 14.9171C20 14.9171 19.846 15.1033 19.5358 15.2725C19.9269 15.5821 19.9863 15.9258 19.9863 16.2872C19.9863 16.732 19.815 17.1181 19.2386 17.4791C19.5251 17.7397 19.8073 18.7007 19.8073 18.9977C19.8073 19.5056 18.3599 19.9944 18.0266 19.9944L17.1792 19.9952C16.1609 19.9963 14.4621 19.9981 13.1846 19.9981C12.9089 19.9981 12.6378 19.9986 12.372 19.9991C11.8555 20 11.3589 20.0009 10.8872 19.9981L5.2814 19.9831L4 7.64815H9.86967L10.6875 4.35904H10.6892C10.7416 4.15316 10.9267 4 11.1487 4C11.1918 4 11.2329 4.00801 11.2723 4.01835L11.2733 4.01668L11.3324 4.03704L11.3329 4.0372C11.3336 4.03739 11.3339 4.03749 11.3344 4.03804L14.5762 5.14486L14.2689 6.04414L11.485 5.09314L10.8495 7.64815H12.3493L12.0531 10.6863C12.4418 10.6663 12.8406 10.6553 13.249 10.6553C16.8381 10.6553 19.7606 11.4131 19.7606 13.202C19.7606 13.4177 19.6854 13.499 19.5816 13.6113C19.5248 13.6727 19.4595 13.7434 19.3932 13.8503C19.4008 13.8553 19.4104 13.8594 19.4202 13.8635C19.4423 13.8729 19.465 13.8825 19.4667 13.904ZM5.04932 8.64915L6.07992 18.9976H6.68672C6.6787 18.7007 7.03237 17.771 7.31824 17.5104C6.74182 17.1497 6.47299 16.826 6.47299 16.3809C6.47299 15.9992 6.57618 15.482 7.00899 15.1593C6.47031 14.9741 6.38081 14.5947 6.72646 14.4929C6.89073 14.4441 6.99248 14.4645 7.07305 14.4806C7.18037 14.5021 7.25012 14.5161 7.38002 14.3491C7.33542 14.305 7.29278 14.2635 7.25215 14.2239L7.25209 14.2239L7.25203 14.2238C6.889 13.8703 6.68672 13.6733 6.68672 13.2019C6.68672 11.7851 8.55489 11.0176 11.113 10.7587L11.3471 8.64915H5.04932ZM19.2003 14.9936L13.2789 16.9536L7.59888 14.9936H19.2003ZM8.15641 18.7351C8.49471 19.0694 9.27784 18.9977 9.27784 18.9977H13.0035H17.6793C17.6793 18.9977 18.074 18.9947 18.3779 18.6944C18.8137 18.2636 18.2784 17.6543 17.7364 17.6543C17.2225 17.6543 15.3932 17.6523 13.4966 17.6502L13.4866 17.6502C11.4485 17.6479 9.33539 17.6456 8.69575 17.6456C8.14238 17.6456 7.81811 18.4001 8.15641 18.7351ZM7.66919 13.2193C7.59906 12.0517 11.3147 11.6249 13.2487 11.6249C15.1215 11.6249 18.8448 12.0507 18.8104 13.2193C18.8014 13.5339 17.512 13.9921 17.512 13.9921H13.2697H8.99601C8.99601 13.9921 7.69057 13.5723 7.66919 13.2193Z" fill="black"/>
</svg>
