<svg width="24" height="24" viewBox="0 0 24 24" fill="none" xmlns="http://www.w3.org/2000/svg">
<path fill-rule="evenodd" clip-rule="evenodd" d="M4 12C4 16.4183 7.58172 20 12 20C16.4183 20 20 16.4183 20 12C20 7.58172 16.4183 4 12 4C7.58172 4 4 7.58172 4 12ZM17.5631 12.8882L17.5524 12.8712L18.8963 12.5611L19.0334 12.8174C18.8162 14.7076 17.8545 16.3713 16.4491 17.508L15.9047 17.37L15.907 15.3738L17.5631 12.8882ZM15.2325 17.7214L15.2784 15.7018L13.3309 14.9719L10.9723 16.2418V17.6926L13.8915 18.7563L13.8831 18.6808L15.2325 17.7214ZM12.9946 11.8979V14.4451L10.65 15.7086L8.19981 14.3472L8.18708 11.6296L10.1952 10.3273L12.9946 11.8979ZM15.2845 10.4092L13.3697 11.391L10.5815 9.82504L10.4202 7.69205L13.2278 6.23105L15.2879 7.52905L15.2845 10.4092ZM15.911 7.76978L15.9078 10.2651L17.1938 12.3029L18.8234 11.8691L19.0018 10.9434C18.7851 9.49521 18.1299 8.19042 17.1756 7.16852L15.911 7.76978ZM12.9775 5.64417V4.98658C12.6579 4.94244 12.3315 4.91962 11.9998 4.91962C10.4999 4.91962 9.10903 5.38597 7.96412 6.18157L8.22455 7.0399H10.2954L12.9775 5.64417ZM7.56324 11.583L7.57568 14.4539L6.48706 15.5425L6.5363 15.5988L5.95665 15.6913C5.29868 14.6165 4.91943 13.3525 4.91943 12C4.91943 11.5391 4.96347 11.0885 5.04756 10.6522L6.45111 10.0261L7.56324 11.583ZM6.35507 9.32523L5.26374 9.8127C5.67354 8.54976 6.42865 7.44241 7.41767 6.60204L7.63877 7.27147L6.35507 9.32523ZM6.33936 16.254L7.01465 16.1455L8.54829 17.8983L8.54132 18.1796C7.68002 17.6966 6.93001 17.0387 6.33936 16.254ZM9.15732 18.4866L9.16273 18.3028H10.7275L12.6927 19.0468C12.4647 19.069 12.2336 19.0803 11.9998 19.0803C10.9888 19.0803 10.0273 18.8684 9.15732 18.4866Z" fill="black"/>
</svg>
