<svg width="24" height="24" viewBox="0 0 24 24" fill="none" xmlns="http://www.w3.org/2000/svg">
<path fill-rule="evenodd" clip-rule="evenodd" d="M18.575 10.4946C19.5492 9.39064 20.8567 6.88841 19.0502 5.02199C18.4168 4.36785 17.6304 4.01477 16.7753 4.00077C15.0906 3.97309 13.7202 5.25038 13.5695 5.39608L13.5691 5.39641C13.2004 5.32473 12.8055 5.28405 12.381 5.28405C11.8313 5.28405 11.3259 5.3524 10.8589 5.4691L10.78 5.39841L10.7772 5.39641C10.6266 5.25038 9.25614 3.97309 7.57142 4.00043C6.71664 4.01444 5.9299 4.36751 5.29621 5.02233C3.4938 6.88441 4.79212 9.3793 5.76527 10.4872C5.09077 11.108 3.51625 12.8384 4.14551 15.0236C5.06526 18.2196 7.94149 18.3276 8.13401 18.331H8.65205C9.53846 19.4606 11.0531 19.9687 12.1725 19.9687C13.2004 19.9687 14.7253 19.5376 15.6705 18.331H16.1892C16.392 18.3276 19.2682 18.2196 20.1879 15.0236C20.8155 12.8427 19.2492 11.1157 18.575 10.4946ZM19.2056 14.7519C18.4964 17.2168 16.4144 17.3265 16.1892 17.3311H15.3011C15.0307 17.3311 14.8113 17.5375 14.7936 17.7982C14.0558 18.6691 12.8742 18.9685 12.1725 18.9685C11.4861 18.9685 10.3194 18.6798 9.57652 17.8509C9.57668 17.8477 9.5772 17.8446 9.57772 17.8416L9.5786 17.8359C9.57878 17.8344 9.5789 17.8328 9.5789 17.8313C9.5789 17.5545 9.35067 17.3311 9.06869 17.3311H8.15371C7.91867 17.3265 5.83666 17.2168 5.12747 14.7519C4.53732 12.7028 6.58702 11.1037 6.67137 11.0391L6.92614 10.845L7.02342 10.545C7.0792 10.3713 8.44691 6.28467 12.381 6.28467C16.2501 6.28467 17.2484 10.2989 17.2882 10.4663L17.3719 10.817L17.6586 11.0364C17.746 11.1037 19.7954 12.7028 19.2056 14.7519ZM7.58854 5.00067C7.07119 5.00901 6.53274 5.19838 6.03648 5.71083C4.72863 7.06213 5.80076 8.8532 6.3256 9.56469C6.77969 8.58147 7.8348 6.7814 9.76681 5.86053C9.33823 5.52846 8.4974 4.98567 7.58854 5.00067ZM16.7578 5.00103C17.2752 5.00903 17.814 5.19841 18.3096 5.71086C19.5939 7.03715 18.5854 8.78621 18.0514 9.52304C17.6551 8.48915 16.6973 6.62539 14.7201 5.75553C15.1769 5.42579 15.9405 4.98769 16.7578 5.00103ZM12.6105 17.1661C12.6592 17.2154 12.7347 17.2524 12.849 17.2524C13.1962 17.2524 13.2109 16.9237 13.2109 16.92L13.8908 16.95V16.953C13.8694 17.4218 13.4969 17.9192 12.849 17.9192C12.5867 17.9192 12.3493 17.8289 12.1687 17.6682C11.9877 17.8289 11.7503 17.9192 11.4884 17.9192C10.8404 17.9192 10.4683 17.4218 10.4465 16.953V16.95L11.1265 16.92C11.1265 16.9237 11.1414 17.2524 11.4884 17.2524C11.6027 17.2524 11.6779 17.2154 11.7268 17.1661C11.8241 17.0684 11.8204 16.9237 11.8204 16.9237V16.1945C11.287 15.9561 10.6673 15.273 10.6673 14.8305C10.6673 14.2867 11.2282 14.2867 11.2282 14.2867H12.1632H13.099C13.099 14.2867 13.6602 14.2867 13.6602 14.8305C13.6602 15.2706 13.0479 15.9471 12.5166 16.1895V16.9237C12.5166 16.9237 12.5132 17.0684 12.6105 17.1661ZM15.2193 11.2855C14.8438 11.2855 14.539 11.7336 14.539 12.2861C14.539 12.8379 14.8438 13.286 15.2193 13.286C15.5952 13.286 15.8996 12.8379 15.8996 12.2861C15.8996 11.7336 15.5952 11.2855 15.2193 11.2855ZM8.41621 12.2861C8.41621 11.7336 8.72098 11.2855 9.09649 11.2855C9.47235 11.2855 9.77677 11.7336 9.77677 12.2861C9.77677 12.8379 9.47235 13.286 9.09649 13.286C8.72098 13.286 8.41621 12.8379 8.41621 12.2861Z" fill="black"/>
</svg>
