<svg width="24" height="24" viewBox="0 0 24 24" fill="none" xmlns="http://www.w3.org/2000/svg">
<path fill-rule="evenodd" clip-rule="evenodd" d="M20 12C20 7.58172 16.4183 4 12 4C7.58172 4 4 7.58172 4 12C4 16.4183 7.58172 20 12 20C16.4183 20 20 16.4183 20 12ZM19 12C19 8.13401 15.866 5 12 5C8.13401 5 5 8.13401 5 12C5 15.866 8.13401 19 12 19C15.866 19 19 15.866 19 12ZM14.418 9C14.8323 9 15.168 9.44767 15.168 10C15.168 10.5523 14.8323 11 14.418 11C14.0036 11 13.668 10.5523 13.668 10C13.668 9.44767 14.0036 9 14.418 9ZM10.4967 10C10.4967 9.44733 10.1617 9 9.74833 9C9.335 9 9 9.44733 9 10C9 10.5527 9.33333 11 9.74833 11C10.1633 11 10.4967 10.5527 10.4967 10ZM12.0078 13.6759C13.4047 13.6759 14.6679 13.3738 15.5751 13.1568C16.4612 12.9449 17.0078 12.8142 17.0078 13.1255C17.0078 15.8869 14.7692 18.1255 12.0078 18.1255C9.24639 18.1255 7.00781 15.8869 7.00781 13.1255C7.00781 12.8142 7.5544 12.9449 8.44055 13.1568L8.44055 13.1568C9.34778 13.3738 10.6109 13.6759 12.0078 13.6759ZM15.0959 14.1327C14.3975 14.3154 13.327 14.5955 12 14.5955C10.673 14.5955 9.60251 14.3154 8.90407 14.1327C8.32349 13.9807 8 13.8961 8 14.0955C8 16.0095 10.908 16.0955 12 16.0955C13.226 16.0955 16 16.0092 16 14.0955C16 13.8961 15.6765 13.9807 15.0959 14.1327Z" fill="black"/>
</svg>
