<svg width="24" height="24" viewBox="0 0 24 24" fill="none" xmlns="http://www.w3.org/2000/svg">
<path fill-rule="evenodd" clip-rule="evenodd" d="M13.3335 4H8.3335H7.3335H7.33325L7.3335 4.02412L7.33476 10H5H4.33325H4V19H5V11H7.33497H8.00325H8.3335V5H13.3337L13.335 10H14.3335V9H19V19H20V9H20.0002V8H14.3335V4H14.3333H13.3335ZM11.125 10.6667H12.875C14.5565 10.6572 15.9409 11.9862 16 13.6667V14.6666H16.9999C17.3681 14.6666 17.6666 14.9651 17.6666 15.3333V18C17.6666 18.3681 17.3682 18.6666 17 18.6666V20H15V18.6666H9V20H7V18.6666H6.99992C6.63173 18.6666 6.33325 18.3681 6.33325 18V15.3333C6.33325 14.9651 6.63173 14.6666 6.99992 14.6666H8V13.6667C8.0591 11.9862 9.4435 10.6572 11.125 10.6667ZM6 11.9896H7V12.9896H6V11.9896ZM12.3333 8H11.3333V9H12.3333V8ZM9.33325 8H10.3333V9H9.33325V8ZM18 9.98962H17V10.9896H18V9.98962ZM17 11.9896H18V12.9896H17V11.9896ZM10.3333 5.99996L9.33325 5.98962V6.99996H10.3333V5.99996ZM11.3333 6H12.3333V7H11.3333V6ZM15 14.6666C15 13.1416 15 11.6666 12 11.6666C9 11.6666 9 13.1433 9 14.6666H15ZM8.146 15.4064C8.56021 15.4064 8.896 15.7422 8.896 16.1564C8.896 16.5706 8.56021 16.9064 8.146 16.9064C7.73178 16.9064 7.396 16.5706 7.396 16.1564C7.396 15.7422 7.73178 15.4064 8.146 15.4064ZM16.5837 16.1564C16.5837 15.7422 16.248 15.4064 15.8337 15.4064H15.8334C15.4193 15.4066 15.0837 15.7423 15.0837 16.1564C15.0837 16.5706 15.4195 16.9064 15.8337 16.9064C16.248 16.9064 16.5837 16.5706 16.5837 16.1564ZM17 17.3334V17.9897H7V17.3334H9.5V17.323C9.5 17.1389 9.64924 16.9896 9.83333 16.9896H14.1667C14.3508 16.9896 14.5 17.1389 14.5 17.323V17.3334H17Z" fill="black"/>
</svg>
