<svg width="100" height="100" viewBox="0 0 100 100" fill="none" xmlns="http://www.w3.org/2000/svg">
<path d="M15.4512 83.6992H85.0313C91.9649 83.6992 96.1154 79.6465 96.1154 71.4434V29.2559C96.1154 21.0527 91.916 17 83.6641 17H14.084C7.10158 17 3 21.0527 3 29.2559V71.4434C3 79.6465 7.15038 83.6992 15.4512 83.6992ZM15.1582 77.0586C11.6914 77.0586 9.68948 75.1543 9.68948 71.4434V29.207C9.68948 25.5449 11.6914 23.6406 15.1582 23.6406H83.9082C87.4239 23.6406 89.4258 25.5449 89.4258 29.2559V71.4922C89.4258 75.1543 87.4239 77.0586 83.9082 77.0586H15.1582ZM49.5332 60.7988C52.1211 60.7988 54.6114 59.8711 56.8086 57.8203L92.7461 25.4473L88.2539 20.9551L53.0977 52.5957C52.0235 53.6211 50.8028 54.1094 49.5332 54.1094C48.3125 54.1094 47.0918 53.6211 46.0176 52.5957L10.8614 20.9551L6.36918 25.4473L42.2578 57.8203C44.5039 59.8711 46.9942 60.7988 49.5332 60.7988ZM11.3985 78.377L38.2051 51.6192L33.6641 47.0781L6.90628 73.8848L11.3985 78.377ZM87.7168 78.4258L92.2578 73.9336L65.4024 47.0781L60.9102 51.6192L87.7168 78.4258Z" fill="black"/>
</svg>
