<svg width="100" height="100" viewBox="0 0 100 100" fill="none" xmlns="http://www.w3.org/2000/svg">
<path fill-rule="evenodd" clip-rule="evenodd" d="M89.8575 50.4043C89.8575 72.1328 72.1817 89.8086 50.4043 89.8086C28.6758 89.8086 11 72.1328 11 50.4043C11 28.6758 28.6758 11 50.4043 11C72.1817 11 89.8575 28.6758 89.8575 50.4043ZM46.8887 54.1152C46.9375 56.3613 48.1582 57.6309 50.4043 57.6309C52.6016 57.6309 53.8223 56.4102 53.8711 54.1152L54.4571 33.3633C54.5059 31.0684 52.7481 29.3594 50.3555 29.3594C47.9629 29.3594 46.2539 31.0195 46.3028 33.3144L46.8887 54.1152ZM45.7657 66.4199C45.7657 68.9102 47.9629 70.8633 50.4043 70.8633C52.8946 70.8633 55.0918 68.959 55.0918 66.4199C55.0918 63.8809 52.9434 61.9277 50.4043 61.9277C47.9141 61.9277 45.7657 63.9297 45.7657 66.4199Z" fill="black"/>
</svg>
