<svg width="100" height="100" viewBox="0 0 100 100" fill="none" xmlns="http://www.w3.org/2000/svg">
<path d="M50.4043 89.8086C72.1817 89.8086 89.8575 72.1816 89.8575 50.4043C89.8575 28.627 72.1817 11 50.4043 11C28.6758 11 11 28.627 11 50.4043C11 72.1816 28.6758 89.8086 50.4043 89.8086ZM50.4043 82.3867C32.7286 82.3867 18.4707 68.0801 18.4707 50.4043C18.4707 32.7285 32.7286 18.4219 50.4043 18.4219C68.0801 18.4219 82.3868 32.7285 82.3868 50.4043C82.3868 68.0801 68.0801 82.3867 50.4043 82.3867Z" fill="black"/>
<path d="M50.3554 57.3379C52.455 57.3379 53.6269 56.166 53.6757 53.9687L54.3105 33.9492C54.3105 31.752 52.6015 30.1406 50.3066 30.1406C48.0117 30.1406 46.3515 31.7031 46.4003 33.9004L46.9863 53.9687C47.0351 56.166 48.207 57.3379 50.3554 57.3379ZM50.3554 70.1309C52.748 70.1309 54.8476 68.2266 54.8476 65.834C54.8476 63.3926 52.7968 61.5371 50.3554 61.5371C47.9628 61.5371 45.912 63.4414 45.912 65.834C45.912 68.1777 48.0117 70.1309 50.3554 70.1309Z" fill="black"/>
</svg>
