<svg width="100" height="100" viewBox="0 0 100 100" fill="none" xmlns="http://www.w3.org/2000/svg">
<path d="M49.9998 81.4766C79.7131 81.4766 100 57.6782 100 50.2383C100 42.7523 79.7131 19 49.9998 19C20.7485 19 0 42.7523 0 50.2383C0 57.6782 20.7485 81.4766 49.9998 81.4766ZM49.9998 75.0072C26.6635 75.0072 7.16267 55.2291 7.16267 50.2383C7.16267 46.218 26.6635 25.4694 49.9998 25.4694C73.2899 25.4694 92.7904 46.218 92.7904 50.2383C92.7904 55.2291 73.2899 75.0072 49.9998 75.0072ZM49.9998 70.4785C61.229 70.4785 70.3324 61.3751 70.3324 50.1459C70.3324 38.9167 61.229 29.8133 49.9998 29.8133C38.7706 29.8133 29.6672 38.9167 29.6672 50.1459C29.6672 61.3751 38.7706 70.4785 49.9998 70.4785ZM49.9998 57.0775C46.2105 57.0775 43.1144 53.9814 43.1144 50.1921C43.1144 46.4029 46.2105 43.3067 49.9998 43.3067C53.8353 43.3067 56.8851 46.4029 56.8851 50.1921C56.8851 53.9814 53.8353 57.0775 49.9998 57.0775Z" fill="black"/>
</svg>
