<svg width="100" height="100" viewBox="0 0 100 100" fill="none" xmlns="http://www.w3.org/2000/svg">
<path fill-rule="evenodd" clip-rule="evenodd" d="M83.4937 70.5871L78.5001 65.5973C87.2294 59.7621 92.7904 52.8801 92.7904 50.2149C92.7904 46.1947 73.2899 25.4461 49.9998 25.4461C46.4373 25.4461 42.9642 25.9296 39.6362 26.7633L34.1864 21.3177C39.0868 19.8512 44.3867 18.9766 49.9998 18.9766C79.7132 18.9766 100 42.7289 100 50.2149C100 54.2942 93.9012 63.2913 83.4937 70.5871ZM17.6735 29.1582C6.62819 36.5564 0 45.9838 0 50.2149C0 57.6548 20.7485 81.4533 49.9998 81.4533C56.209 81.4533 62.0067 80.414 67.2935 78.7019L61.905 73.3217C58.1127 74.3662 54.1154 74.9838 49.9998 74.9838C26.6635 74.9838 7.16267 55.2057 7.16267 50.2149C7.16267 47.9602 13.2963 40.444 22.8002 34.277L17.6735 29.1582ZM31.1133 42.5773C30.1803 44.9103 29.6672 47.4565 29.6672 50.1226C29.6672 61.3517 38.7706 70.4551 49.9998 70.4551C52.6769 70.4551 55.2332 69.9377 57.5741 68.9974L31.1133 42.5773ZM69.3328 56.437C69.9816 54.4493 70.3324 52.3269 70.3324 50.1226C70.3324 38.8933 61.229 29.7899 49.9998 29.7899C47.7899 29.7899 45.6624 30.1425 43.6704 30.7944L69.3328 56.437Z" fill="black"/>
<path d="M77.8186 81.5457C79.0662 82.7933 81.0071 82.8858 82.301 81.5457C83.6411 80.1593 83.5487 78.3109 82.301 77.0632L22.2272 17.0357C20.9796 15.7881 18.9463 15.7881 17.6987 17.0357C16.4971 18.2373 16.4971 20.3167 17.6987 21.5182L77.8186 81.5457Z" fill="black"/>
</svg>
