<svg width="100" height="100" viewBox="0 0 100 100" fill="none" xmlns="http://www.w3.org/2000/svg">
<path fill-rule="evenodd" clip-rule="evenodd" d="M83.4937 71.4871L78.5001 66.4973C87.2294 60.6621 92.7904 53.7801 92.7904 51.1149C92.7904 47.0947 73.2899 26.3461 49.9998 26.3461C46.4373 26.3461 42.9642 26.8296 39.6362 27.6633L34.1864 22.2177C39.0868 20.7512 44.3867 19.8766 49.9998 19.8766C79.7132 19.8766 100 43.6289 100 51.1149C100 55.1942 93.9012 64.1913 83.4937 71.4871ZM17.6735 30.0582C6.62819 37.4564 0 46.8838 0 51.1149C0 58.5548 20.7485 82.3533 49.9998 82.3533C56.209 82.3533 62.0067 81.314 67.2935 79.6019L61.905 74.2217C58.1127 75.2662 54.1154 75.8838 49.9998 75.8838C26.6635 75.8838 7.16267 56.1057 7.16267 51.1149C7.16267 48.8602 13.2963 41.3439 22.8002 35.177L17.6735 30.0582ZM31.1133 43.4773C30.1803 45.8103 29.6672 48.3565 29.6672 51.0226C29.6672 62.2517 38.7706 71.3551 49.9998 71.3551C52.6769 71.3551 55.2332 70.8377 57.5741 69.8974L31.1133 43.4773ZM69.3328 57.337C69.9816 55.3493 70.3324 53.2269 70.3324 51.0226C70.3324 39.7933 61.229 30.6899 49.9998 30.6899C47.7899 30.6899 45.6624 31.0425 43.6704 31.6944L69.3328 57.337Z" fill="black"/>
<path d="M77.8186 82.4457C79.0662 83.6933 81.0071 83.7858 82.301 82.4457C83.6411 81.0593 83.5487 79.2109 82.301 77.9632L22.2272 17.9357C20.9796 16.6881 18.9463 16.6881 17.6987 17.9357C16.4971 19.1373 16.4971 21.2167 17.6987 22.4182L77.8186 82.4457Z" fill="black"/>
</svg>
