<svg width="100" height="100" viewBox="0 0 100 100" fill="none" xmlns="http://www.w3.org/2000/svg">
<path d="M46.7188 90.3711H53.6036C55.5567 90.3711 56.9727 89.1993 57.461 87.295L59.4629 78.75C61.0743 78.2129 62.5879 77.627 63.9551 76.9434L71.4258 81.5332C72.9883 82.5098 74.8926 82.3633 76.211 81.045L81.045 76.211C82.3633 74.8926 82.5586 72.8907 81.4844 71.2793L76.9434 63.8575C77.627 62.4903 78.2618 60.9766 78.7012 59.5606L87.3438 57.5098C89.1993 57.0704 90.3223 55.6543 90.3223 53.6524V46.9141C90.3223 45.0098 89.1993 43.5938 87.3438 43.1543L78.7989 41.0547C78.2618 39.3946 77.5782 37.9297 77.0411 36.709L81.5821 29.1407C82.5586 27.4805 82.5098 25.6739 81.1426 24.3067L76.211 19.4727C74.8438 18.252 73.1348 17.9102 71.5723 18.8868L63.9551 23.5743C62.6368 22.8907 61.1231 22.3047 59.4629 21.7676L57.461 13.0762C56.9727 11.1719 55.5567 10 53.6036 10H46.7188C44.7657 10 43.3496 11.1719 42.9102 13.0762L40.8594 21.67C39.2969 22.2071 37.6856 22.793 36.3672 23.5254L28.7989 18.8868C27.1875 17.9102 25.4297 18.1543 24.1114 19.4727L19.1797 24.3067C17.8125 25.6739 17.7637 27.4805 18.7403 29.1407L23.2813 36.709C22.7442 37.9297 22.0606 39.3946 21.5723 41.0547L13.0273 43.1543C11.123 43.5938 10 45.0098 10 46.9141V53.6524C10 55.6543 11.123 57.0704 13.0273 57.5098L21.67 59.5606C22.0606 60.9766 22.6953 62.4903 23.3789 63.8575L18.8379 71.2793C17.7637 72.8907 17.959 74.8926 19.2774 76.211L24.1114 81.045C25.4297 82.3633 27.334 82.5098 28.9453 81.5332L36.4161 76.9434C37.7344 77.627 39.2969 78.2129 40.8594 78.75L42.9102 87.295C43.3496 89.1993 44.7657 90.3711 46.7188 90.3711ZM50.1856 63.6133C42.7637 63.6133 36.7579 57.5586 36.7579 50.1856C36.7579 42.8125 42.7637 36.7579 50.1856 36.7579C57.5586 36.7579 63.5645 42.8125 63.5645 50.1856C63.5645 57.5586 57.5586 63.6133 50.1856 63.6133Z" fill="black"/>
</svg>
