<svg width="100" height="100" viewBox="0 0 100 100" fill="none" xmlns="http://www.w3.org/2000/svg">
<path d="M46.9613 47.9818L9.34686 87.5218C9.3488 87.5297 9.35085 87.5376 9.35304 87.5455C10.5068 91.8383 14.4651 95 19.1655 95C20.976 95.0035 22.7549 94.5254 24.3198 93.6147L24.4391 93.5437L66.7786 69.3481L46.9613 47.9818Z" fill="#EA4335"/>
<path d="M85.0151 41.2486L84.9791 41.225L66.7004 30.7291L46.107 48.8792L66.7724 69.3429L84.9554 58.9531C88.1429 57.2477 90.3073 53.9202 90.3073 50.0834C90.3073 46.2701 88.1727 42.9602 85.0151 41.2486Z" fill="#FBBC04"/>
<path d="M9.34479 12.4761C9.11504 13.3201 8.99908 14.191 9.00001 15.0656V84.9343C9.03706 85.9368 9.11836 86.6994 9.34685 87.5217L48.255 48.9944L9.34479 12.4761Z" fill="#4285F4"/>
<path d="M47.2391 50L66.7066 30.723L24.4155 6.43884C22.8271 5.49494 21.0131 4.99781 19.1655 5.00001C14.4651 5.00001 10.5006 8.1679 9.34685 12.4669L9.34479 12.4772L47.2391 50Z" fill="#34A853"/>
</svg>
