<svg width="100" height="100" viewBox="0 0 100 100" fill="none" xmlns="http://www.w3.org/2000/svg">
<path d="M65.9002 85.736C81.6228 80.0231 87.9705 65.5212 81.8181 48.5778L78.8396 40.4235C75.8123 32.1227 69.9041 28.6559 63.0681 31.0485C61.2615 28.6559 58.4295 27.8747 55.4021 28.9977C54.2791 29.3883 53.3514 29.9254 52.4724 30.609C50.4217 27.9723 47.2967 27.0446 44.074 28.2165C43.2928 28.5094 42.5603 28.9001 41.8279 29.3883L37.5799 17.7184C35.8221 12.9821 31.574 10.9313 27.033 12.5426C22.4431 14.2028 20.49 18.5485 22.1502 23.2848L32.7947 52.4352C32.8435 52.6305 32.7947 52.777 32.5994 52.8747C32.4529 52.9235 32.3553 52.8747 32.2576 52.7282L28.6443 48.8219C26.3494 46.4782 23.6639 45.7458 20.9783 46.6735C17.365 47.9919 14.9724 51.4586 16.4373 55.5602C16.8279 56.7809 17.7068 58.1969 18.5857 59.3688L31.1834 74.5544C41.2908 86.7614 52.8631 90.4723 65.9002 85.736ZM64.0447 79.9743C54.0349 83.6364 44.7088 82.1227 35.5291 70.9899L22.9314 55.902C22.5408 55.4626 22.2967 55.0719 22.1014 54.486C21.6619 53.3141 22.1014 52.0446 23.5174 51.5563C24.6404 51.1169 25.5193 51.5563 26.3494 52.484L35.2849 61.4684C36.8963 63.1774 38.3123 63.3239 39.6307 62.8356C41.242 62.2497 41.8767 60.5895 41.242 58.8317L27.4236 20.9411C26.9353 19.6227 27.5701 18.3044 28.9373 17.8161C30.2557 17.3278 31.574 17.9137 32.0135 19.2809L41.9256 46.4782C42.4139 47.8454 44.0252 48.4313 45.3924 47.8942C46.7596 47.4059 47.5896 45.9411 47.0525 44.5739L43.4881 34.9059C43.9764 34.4176 44.6111 33.9294 45.3435 33.734C46.9549 33.1481 48.3221 33.8317 48.9568 35.5407L52.1307 44.2809C52.6678 45.6481 54.2303 46.234 55.5974 45.7458C56.9646 45.2575 57.7947 43.8415 57.2576 42.4254L54.8162 35.6383C55.2557 35.1989 55.9392 34.7594 56.574 34.4665C58.2342 33.8805 59.6502 34.5641 60.2361 36.2731L62.3846 42.1325C62.8728 43.5485 64.4842 44.0856 65.9002 43.5973C67.2185 43.109 67.9998 41.6442 67.5115 40.277L66.0955 36.3219C68.9764 35.2477 71.8084 37.8356 73.8103 43.2555L76.1541 49.8473C81.4275 64.2028 76.9842 75.2868 64.0447 79.9743Z" fill="black"/>
</svg>
