<svg width="100" height="100" viewBox="0 0 100 100" fill="none" xmlns="http://www.w3.org/2000/svg">
<path d="M50.4043 89.8086C72.1817 89.8086 89.8575 72.1816 89.8575 50.4043C89.8575 28.627 72.1817 11 50.4043 11C28.6758 11 11 28.627 11 50.4043C11 72.1816 28.6758 89.8086 50.4043 89.8086ZM50.4043 82.3867C32.7286 82.3867 18.4707 68.0801 18.4707 50.4043C18.4707 32.7285 32.7286 18.4219 50.4043 18.4219C68.0801 18.4219 82.3868 32.7285 82.3868 50.4043C82.3868 68.0801 68.0801 82.3867 50.4043 82.3867Z" fill="black"/>
<path d="M43.8125 72.0352H59.3399C61.0977 72.0352 62.5137 70.7656 62.5137 68.959C62.5137 67.25 61.0977 65.9316 59.3399 65.9316H55.043V47.6699C55.043 45.2773 53.8711 43.7637 51.6739 43.7637H44.545C42.7871 43.7637 41.42 45.082 41.42 46.7422C41.42 48.5488 42.7871 49.8184 44.545 49.8184H48.1094V65.9316H43.8125C42.0547 65.9316 40.6387 67.25 40.6387 68.959C40.6387 70.7656 42.0547 72.0352 43.8125 72.0352ZM50.0137 37.7578C53.0899 37.7578 55.4825 35.3164 55.4825 32.2402C55.4825 29.1641 53.0899 26.7715 50.0137 26.7715C46.9864 26.7715 44.545 29.1641 44.545 32.2402C44.545 35.3164 46.9864 37.7578 50.0137 37.7578Z" fill="black"/>
</svg>
