<svg width="100" height="100" viewBox="0 0 100 100" fill="none" xmlns="http://www.w3.org/2000/svg">
<path d="M51.9687 34.2441L46.207 40.1035C50.7968 40.7382 53.7754 42.2031 56.0214 44.4492C62.5644 50.9921 62.5644 60.1718 56.1191 66.6171L43.6191 79.1172C37.125 85.6113 27.9453 85.6113 21.4023 79.1172C14.8105 72.5254 14.8593 63.3457 21.3535 56.9004L27.9453 50.3086C26.7246 47.4765 26.4316 44.2539 26.7734 41.5195L16.08 52.2128C6.65625 61.5878 6.60742 74.9179 16.1289 84.3906C25.6015 93.9121 38.8828 93.8633 48.3066 84.4394L61.3925 71.3046C70.7675 61.9296 70.8164 48.6484 61.3437 39.1269C59.1953 36.9785 56.4121 35.3671 51.9687 34.2441ZM48.3554 66.2265L54.0683 60.416C49.4785 59.7812 46.5 58.3164 44.3027 56.0703C37.7597 49.5273 37.7597 40.3476 44.205 33.9023L56.705 21.4023C63.1992 14.9082 72.3789 14.8593 78.9218 21.4023C85.4648 27.9941 85.416 37.1738 78.9707 43.6191L72.3789 50.2109C73.5996 53.0429 73.8925 56.2656 73.5507 59L84.2441 48.3066C93.6679 38.8828 93.7168 25.6015 84.1953 16.1289C74.7226 6.60744 61.3925 6.65623 52.0175 16.08L38.9316 29.2148C29.5566 38.5898 29.4589 51.8711 38.9804 61.3925C41.1289 63.541 43.9121 65.1523 48.3554 66.2265Z" fill="black"/>
</svg>
