<svg width="100" height="100" viewBox="0 0 100 100" fill="none" xmlns="http://www.w3.org/2000/svg">
<path d="M22.2774 65.6601C22.2774 63.2675 20.3731 61.3633 17.9317 61.3633C15.5879 61.3633 13.6836 63.2675 13.6836 65.6601C13.6836 68.0039 15.5879 69.8593 17.9317 69.8593C20.3731 69.8593 22.2774 68.0039 22.2774 65.6601ZM22.2774 80.8457C22.2774 78.4531 20.3731 76.5 17.9317 76.5C15.5879 76.5 13.6836 78.4531 13.6836 80.8457C13.6836 83.1894 15.5879 85.0937 17.9317 85.0937C20.3731 85.0937 22.2774 83.1894 22.2774 80.8457ZM85.5586 65.6601C85.5586 63.707 83.9473 62.291 81.7989 62.291H30.627C28.4785 62.291 26.916 63.707 26.916 65.6601C26.916 67.5644 28.4785 69.0293 30.627 69.0293H81.7989C83.9473 69.0293 85.5586 67.5644 85.5586 65.6601ZM85.5586 80.8457C85.5586 78.8926 83.9473 77.4277 81.7989 77.4277H30.627C28.4785 77.4277 26.916 78.8926 26.916 80.8457C26.916 82.75 28.4785 84.2148 30.627 84.2148H81.7989C83.9473 84.2148 85.5586 82.75 85.5586 80.8457ZM23.8399 14C15.6367 14 13 17.3691 13 25.084V42.7597C13 50.4746 15.6367 53.8437 23.8399 53.8437H76.3301C84.4844 53.8437 87.1211 50.4746 87.1211 42.7597V25.084C87.1211 17.3691 84.4844 14 76.3301 14H23.8399ZM20.0313 43.0039V24.8398C20.0313 21.8125 20.8125 20.5918 23.8887 20.5918H76.2813C79.3086 20.5918 80.0899 21.8125 80.0899 24.8398V43.0039C80.0899 46.0312 79.3086 47.3008 76.2813 47.3008H23.8887C20.8125 47.3008 20.0313 46.0312 20.0313 43.0039Z" fill="black"/>
</svg>
