<svg width="100" height="100" viewBox="0 0 100 100" fill="none" xmlns="http://www.w3.org/2000/svg">
<path fill-rule="evenodd" clip-rule="evenodd" d="M68.1617 54.3479L81.5733 25.392C84.4054 19.2397 79.5226 15.1381 73.5655 17.8725L44.9451 31.1124L68.1617 54.3479ZM29.1384 38.4246L60.8575 70.1178L53.9366 85.06C51.0558 91.3589 43.3897 89.7475 43.3897 83.4487L43.2921 56.8373C43.2921 56.2514 43.0968 56.0561 42.462 56.0561L15.7042 55.9096C9.11242 55.8608 8.0382 48.1459 13.5069 45.6557L29.1384 38.4246Z" fill="black"/>
<path d="M78.6437 81.105C79.962 82.4233 82.1593 82.4233 83.4288 81.105C84.6495 79.7866 84.6983 77.687 83.4288 76.3686L23.8097 16.7983C22.4913 15.4799 20.3429 15.4799 19.0245 16.7983C17.755 18.0678 17.755 20.2651 19.0245 21.5346L78.6437 81.105Z" fill="black"/>
</svg>
