<svg width="100" height="100" viewBox="0 0 100 100" fill="none" xmlns="http://www.w3.org/2000/svg">
<path d="M26.4512 85.1914H72.6914C81.041 85.1914 85.1426 81.0899 85.1426 72.8867V26.3047C85.1426 18.1016 81.041 14 72.6914 14H26.4512C18.1504 14 14 18.1016 14 26.3047V72.8867C14 81.0899 18.1504 85.1914 26.4512 85.1914ZM26.5489 78.1113C23.0332 78.1113 21.0313 76.207 21.0313 72.5449V26.6465C21.0313 22.9356 23.0332 21.0801 26.5489 21.0801H72.5938C76.1094 21.0801 78.1114 22.9356 78.1114 26.6465V72.5449C78.1114 76.207 76.1094 78.1113 72.5938 78.1113H26.5489Z" fill="black"/>
<path d="M34.6055 67.418C36.6563 67.418 37.8282 66.0996 37.8282 63.8535V43.4434H38.1211L46.3242 63.8535C46.959 65.3672 47.9844 66.0508 49.5469 66.0508C51.1094 66.0508 52.1348 65.3672 52.7696 63.8535L61.0215 43.4434H61.3145V63.8535C61.3145 66.0508 62.5352 67.418 64.4395 67.418C66.4414 67.418 67.6621 66.0996 67.6621 63.8535V34.9961C67.6621 32.7012 66.002 31.0899 63.6094 31.0899C61.6074 31.0899 60.2403 31.9688 59.5078 33.7266L49.6934 58.2383H49.4981L39.6348 33.7266C38.9512 31.9688 37.584 31.0899 35.5332 31.0899C33.1406 31.0899 31.5293 32.7012 31.5293 34.9961V63.8535C31.5293 66.0508 32.7012 67.418 34.6055 67.418Z" fill="black"/>
</svg>
