<svg width="100" height="100" viewBox="0 0 100 100" fill="none" xmlns="http://www.w3.org/2000/svg">
<path d="M12 43.0547C12 60.1933 25.916 74.0605 43.0547 74.0605C49.6464 74.0605 55.7011 72.0098 60.7304 68.4941L78.8945 86.707C79.9199 87.6836 81.1894 88.123 82.5078 88.123C85.3398 88.123 87.3906 85.9746 87.3906 83.1426C87.3906 81.7754 86.8535 80.5547 86.0234 79.6269L67.957 61.5117C71.8144 56.3359 74.0605 49.9883 74.0605 43.0547C74.0605 25.916 60.1933 12 43.0547 12C25.916 12 12 25.916 12 43.0547ZM19.5195 43.0547C19.5195 30.0176 30.0175 19.5195 43.0547 19.5195C56.0429 19.5195 66.5898 30.0176 66.5898 43.0547C66.5898 56.043 56.0429 66.5898 43.0547 66.5898C30.0175 66.5898 19.5195 56.043 19.5195 43.0547Z" fill="black"/>
</svg>
