<svg width="100" height="100" viewBox="0 0 100 100" fill="none" xmlns="http://www.w3.org/2000/svg">
<path d="M72.0586 63.0996C51.1114 63.0996 38.0254 50.3555 38.0254 29.3594C38.0254 24.8672 39.1485 18.3731 40.4668 15.2969C40.8575 14.3203 40.9063 13.6856 40.9063 13.295C40.9063 12.2696 40.125 11 38.5137 11C38.0254 11 37 11.0977 36.0235 11.4883C21.6192 17.1524 12 32.4356 12 48.1582C12 70.375 30.0664 88.4414 52.2832 88.4414C69.0801 88.4414 83.1426 78.2852 87.9766 65.7364C88.3184 64.711 88.4161 63.6367 88.4161 63.2461C88.4161 61.7325 87.1465 60.7559 86.0723 60.7559C85.4864 60.7559 84.9981 60.8535 84.168 61.1465C81.1895 62.1231 76.6485 63.0996 72.0586 63.0996Z" fill="black"/>
</svg>
