<svg width="100" height="100" viewBox="0 0 100 100" fill="none" xmlns="http://www.w3.org/2000/svg">
<path d="M24.4512 85.1914H76.1114C84.461 85.1914 88.5625 81.0899 88.5625 72.8867V26.3047C88.5625 18.1016 84.461 14 76.1114 14H24.4512C16.1504 14 12 18.1016 12 26.3047V72.8867C12 81.0899 16.1504 85.1914 24.4512 85.1914ZM23.7676 78.1113C20.7403 78.1113 19.0313 76.5 19.0313 73.3262V36.6074C19.0313 33.4336 20.7403 31.8223 23.7676 31.8223H76.7461C79.7735 31.8223 81.5313 33.4336 81.5313 36.6074V73.3262C81.5313 76.5 79.7735 78.1113 76.7461 78.1113H23.7676Z" fill="black"/>
<path d="M30.7012 46.2266H69.9102C71.4239 46.2266 72.5469 45.0547 72.5469 43.541C72.5469 42.0762 71.4239 40.9531 69.9102 40.9531H30.7012C29.1387 40.9531 28.0156 42.0762 28.0156 43.541C28.0156 45.0547 29.1387 46.2266 30.7012 46.2266ZM30.7012 57.6035H69.9102C71.4239 57.6035 72.5469 56.4805 72.5469 55.0156C72.5469 53.502 71.4239 52.3301 69.9102 52.3301H30.7012C29.1387 52.3301 28.0156 53.502 28.0156 55.0156C28.0156 56.4805 29.1387 57.6035 30.7012 57.6035ZM30.7012 68.9805H55.2617C56.7754 68.9805 57.8985 67.8574 57.8985 66.3926C57.8985 64.8789 56.7754 63.707 55.2617 63.707H30.7012C29.1387 63.707 28.0156 64.8789 28.0156 66.3926C28.0156 67.8574 29.1387 68.9805 30.7012 68.9805Z" fill="black"/>
</svg>
