<svg width="100" height="100" viewBox="0 0 100 100" fill="none" xmlns="http://www.w3.org/2000/svg">
<path d="M30.209 87.3164C32.3086 87.3164 33.8711 86.1934 34.2617 84.0449L47.6406 17.6875C47.6895 17.4434 47.7871 16.9063 47.7871 16.3203C47.7871 14.2207 46.2246 13 44.125 13C41.6348 13 40.5117 14.3672 40.1211 16.418L26.791 82.6777C26.6934 83.0684 26.6446 83.6055 26.6446 84.0449C26.6446 86.1445 28.1582 87.3164 30.209 87.3164ZM55.209 87.3164C57.3086 87.3164 58.8711 86.1934 59.3106 84.0449L72.6406 17.6875C72.6895 17.4434 72.7871 16.9063 72.7871 16.3203C72.7871 14.2207 71.2246 13 69.125 13C66.6836 13 65.5606 14.3672 65.1699 16.418L51.791 82.6777C51.6934 83.0684 51.6446 83.6055 51.6446 84.0449C51.6446 86.1445 53.1582 87.3164 55.209 87.3164ZM24.4473 39.6602H80.6973C83.0899 39.6602 84.7989 37.9024 84.7989 35.5098C84.7989 33.5567 83.4805 32.043 81.5274 32.043H25.2774C22.8848 32.043 21.2246 33.8496 21.2246 36.291C21.2246 38.2442 22.543 39.6602 24.4473 39.6602ZM19.2227 66.5156H75.4727C77.8653 66.5156 79.5742 64.7578 79.5742 62.3653C79.5742 60.4121 78.2559 58.8985 76.3028 58.8985H20.1016C17.709 58.8985 16 60.7051 16 63.1465C16 65.0996 17.3184 66.5156 19.2227 66.5156Z" fill="black"/>
</svg>
