<svg width="100" height="100" viewBox="0 0 100 100" fill="none" xmlns="http://www.w3.org/2000/svg">
<path fill-rule="evenodd" clip-rule="evenodd" d="M28.5679 80.7429H83.004C84.9083 80.7429 86.5196 79.1316 86.5196 77.1784C86.5196 75.2742 84.9083 73.6628 83.004 73.6628H35.6832L28.5679 80.7429Z" fill="black"/>
<path d="M23.9708 77.2761L64.7911 36.5534L57.4669 29.2292L16.6466 69.9519L13.0821 78.7898C12.6915 79.7663 13.7657 80.9382 14.7911 80.5964L23.9708 77.2761ZM68.3067 33.0866L72.4571 29.0339C74.5079 26.9343 74.6544 24.6882 72.7989 22.8327L71.2364 21.3191C69.3809 19.4148 67.1349 19.6101 65.0841 21.6609L60.9337 25.7136L68.3067 33.0866Z" fill="black"/>
</svg>
