<svg width="100" height="100" viewBox="0 0 100 100" fill="none" xmlns="http://www.w3.org/2000/svg">
<path d="M17 50.1055C17 53.5479 19.8076 56.3555 23.25 56.3555H43.8555V76.961C43.8555 80.3789 46.6631 83.211 50.1055 83.211C53.5479 83.211 56.3311 80.3789 56.3311 76.961V56.3555H76.961C80.3789 56.3555 83.1865 53.5479 83.1865 50.1055C83.1865 46.6631 80.3789 43.8555 76.961 43.8555H56.3311V23.25C56.3311 19.8321 53.5479 17 50.1055 17C46.6631 17 43.8555 19.8321 43.8555 23.25V43.8555H23.25C19.8076 43.8555 17 46.6631 17 50.1055Z" fill="black"/>
</svg>
