<svg width="100" height="100" viewBox="0 0 100 100" fill="none" xmlns="http://www.w3.org/2000/svg">
<path d="M80.8946 18.6387C76.7442 14.5371 70.8848 14 64.6348 14H34.8496C28.5996 14 22.7403 14.5371 18.5899 18.6387C14.4883 22.7891 14 28.5996 14 34.8496V64.6348C14 70.9336 14.4883 76.6953 18.5899 80.8457C22.7403 84.9473 28.5508 85.4844 34.8496 85.4844H64.6348C70.8848 85.4844 76.7442 84.9473 80.8946 80.8457C84.9961 76.6953 85.4844 70.9336 85.4844 64.6348V34.8496C85.4844 28.5508 84.9961 22.7891 80.8946 18.6387ZM78.4532 33.7754V65.709C78.4532 69.2734 78.0625 73.4238 75.7676 75.7188C73.4727 78.0137 69.2735 78.4531 65.709 78.4531H33.7754C30.211 78.4531 26.0117 78.0137 23.7168 75.7188C21.4219 73.4238 21.0313 69.2734 21.0313 65.709V33.8242C21.0313 30.2109 21.4219 26.0606 23.7168 23.7656C26.0117 21.4707 30.211 21.0313 33.8242 21.0313H65.709C69.2735 21.0313 73.4727 21.4707 75.7676 23.7656C78.0625 26.0606 78.4532 30.2109 78.4532 33.7754Z" fill="black"/>
<path d="M31.7735 49.7422C31.7735 51.8906 33.2871 53.3555 35.5332 53.3555H46.0801V63.9512C46.0801 66.1484 47.5449 67.6621 49.6934 67.6621C51.8906 67.6621 53.4043 66.1484 53.4043 63.9512V53.3555H64C66.1973 53.3555 67.6621 51.8906 67.6621 49.7422C67.6621 47.5449 66.1973 46.0313 64 46.0313H53.4043V35.4844C53.4043 33.2383 51.8906 31.7246 49.6934 31.7246C47.5449 31.7246 46.0801 33.2383 46.0801 35.4844V46.0313H35.5332C33.2871 46.0313 31.7735 47.5449 31.7735 49.7422Z" fill="black"/>
</svg>
