<svg width="100" height="100" viewBox="0 0 100 100" fill="none" xmlns="http://www.w3.org/2000/svg">
<path d="M18 49.9336C18 52.082 19.8067 53.8887 21.9551 53.8887H45.9785V77.9121C45.9785 80.0117 47.7852 81.8672 49.9336 81.8672C52.0821 81.8672 53.8399 80.0117 53.8399 77.9121V53.8887H77.9121C80.0117 53.8887 81.8184 52.082 81.8184 49.9336C81.8184 47.7852 80.0117 45.9785 77.9121 45.9785H53.8399V21.9551C53.8399 19.8555 52.0821 18 49.9336 18C47.7852 18 45.9785 19.8555 45.9785 21.9551V45.9785H21.9551C19.8067 45.9785 18 47.7852 18 49.9336Z" fill="black"/>
</svg>
