<svg width="100" height="100" viewBox="0 0 100 100" fill="none" xmlns="http://www.w3.org/2000/svg">
<path d="M18 49.9336C18 52.082 19.8067 53.8887 21.9551 53.8887H45.9785V77.9121C45.9785 80.0117 47.7852 81.8672 49.9336 81.8672C52.0821 81.8672 53.8399 80.0117 53.8399 77.9121V53.8887H77.9121C80.0117 53.8887 81.8184 52.082 81.8184 49.9336C81.8184 47.7852 80.0117 45.9785 77.9121 45.9785H53.8399V21.9551C53.8399 19.8555 52.0821 18 49.9336 18C47.7852 18 45.9785 19.8555 45.9785 21.9551V45.9785H21.9551C19.8067 45.9785 18 47.7852 18 49.9336Z" fill="black"/>
<path d="M17 49.6789C17 52.6503 19.4433 55.0936 22.4147 55.0936H44.2643V76.9432C44.2643 79.8813 46.7075 82.3578 49.6789 82.3578C52.6503 82.3578 55.0603 79.8813 55.0603 76.9432V55.0936H76.9432C79.8813 55.0936 82.3245 52.6503 82.3245 49.6789C82.3245 46.7075 79.8813 44.2643 76.9432 44.2643H55.0603V22.4147C55.0603 19.4766 52.6503 17 49.6789 17C46.7075 17 44.2643 19.4766 44.2643 22.4147V44.2643H22.4147C19.4433 44.2643 17 46.7075 17 49.6789Z" fill="black"/>
</svg>
