<svg width="100" height="100" viewBox="0 0 100 100" fill="none" xmlns="http://www.w3.org/2000/svg">
<path fill-rule="evenodd" clip-rule="evenodd" d="M89.8575 50.4043C89.8575 72.1328 72.1817 89.8086 50.4043 89.8086C28.6758 89.8086 11 72.1328 11 50.4043C11 28.6758 28.6758 11 50.4043 11C72.1817 11 89.8575 28.6758 89.8575 50.4043ZM37.6114 35.2187C29.9942 35.2187 25.0137 39.6621 25.0137 46.5957V49.1836C25.0137 50.7949 26.3321 52.1133 27.9434 52.1133C29.6524 52.1133 30.9707 50.7949 30.9707 49.1836V46.8887C30.9707 43.373 33.4121 41.0781 37.0743 41.0781H52.6504V45.8633C52.6504 47.377 53.5782 48.2559 55.043 48.2559C55.6289 48.2559 56.3614 48.0605 56.8008 47.6699L65.8829 40.0039C67.1036 39.0273 67.1036 37.5137 65.8829 36.4883L56.8008 28.8223C56.3614 28.3828 55.6289 28.1387 55.043 28.1387C53.5782 28.1387 52.6504 29.0664 52.6504 30.5312V35.2187H37.6114ZM63.1973 65.7363C70.8145 65.7363 75.795 61.293 75.795 54.3594V51.7715C75.795 50.1113 74.5254 48.8418 72.8653 48.8418C71.1563 48.8418 69.8379 50.1113 69.8379 51.7715V54.0664C69.8379 57.582 67.3965 59.877 63.7344 59.877H48.1582V55.1406C48.1582 53.627 47.2793 52.748 45.7657 52.748C45.1797 52.748 44.4961 52.9434 44.0079 53.334L34.9258 61C33.7051 61.9766 33.7051 63.4902 34.9258 64.5156L44.0079 72.1816C44.545 72.6211 45.1797 72.8652 45.7657 72.8652C47.2793 72.8652 48.1582 71.9375 48.1582 70.4727V65.7363H63.1973Z" fill="black"/>
</svg>
