<svg width="100" height="100" viewBox="0 0 100 100" fill="none" xmlns="http://www.w3.org/2000/svg">
<path d="M50.4043 89.8086C72.1817 89.8086 89.8575 72.1816 89.8575 50.4043C89.8575 28.627 72.1817 11 50.4043 11C28.6758 11 11 28.627 11 50.4043C11 72.1816 28.6758 89.8086 50.4043 89.8086ZM50.4043 82.3867C32.7286 82.3867 18.4707 68.0801 18.4707 50.4043C18.4707 32.7285 32.7286 18.4219 50.4043 18.4219C68.0801 18.4219 82.3868 32.7285 82.3868 50.4043C82.3868 68.0801 68.0801 82.3867 50.4043 82.3867Z" fill="black"/>
<path d="M25.8926 46.6934V49.2324C25.8926 50.7949 27.1621 52.0644 28.7246 52.0644C30.336 52.0644 31.6055 50.7949 31.6055 49.2324V47.0352C31.6055 43.666 33.9981 41.4199 37.5625 41.4199H52.5039V46.0586C52.5039 47.4746 53.4317 48.3535 54.8477 48.3535C55.3848 48.3535 56.0196 48.1094 56.5567 47.7676L65.2969 40.3945C66.4688 39.418 66.4688 38.002 65.2969 36.9766L56.5567 29.6035C56.0196 29.2129 55.3848 28.9687 54.8477 28.9687C53.4317 28.9687 52.5039 29.8477 52.5039 31.2637V35.7559H38.002C30.6778 35.7559 25.8926 40.0527 25.8926 46.6934ZM74.8184 54.2617V51.7227C74.8184 50.1113 73.5977 48.8906 71.9864 48.8906C70.3262 48.8906 69.1055 50.1113 69.1055 51.7227V53.9199C69.1055 57.2891 66.7618 59.5352 63.1485 59.5352H48.2071V54.9453C48.2071 53.5293 47.3282 52.6504 45.9121 52.6504C45.3262 52.6504 44.6914 52.8945 44.2032 53.2363L35.4141 60.6094C34.2911 61.5859 34.2422 63.0508 35.4141 64.0273L44.2032 71.4004C44.6914 71.791 45.3262 72.0352 45.9121 72.0352C47.3282 72.0352 48.2071 71.1562 48.2071 69.7402V65.1992H62.709C70.0332 65.1992 74.8184 60.9023 74.8184 54.2617Z" fill="black"/>
</svg>
