<svg width="100" height="100" viewBox="0 0 100 100" fill="none" xmlns="http://www.w3.org/2000/svg">
<path d="M88.2246 48.0566C86.1739 48.0566 84.6114 49.6191 84.6114 51.6699V55.3808C84.6114 61.6308 80.1192 65.8789 73.5274 65.8789H42.8633V57.041C42.8633 55.332 41.8379 54.4043 40.1289 54.4043C39.3965 54.4043 38.5664 54.6972 37.9805 55.1855L23.3809 67.4414C22.1114 68.5644 22.0625 70.1269 23.3809 71.25L37.9805 83.5547C38.5664 84.043 39.3965 84.3359 40.1289 84.3359C41.8379 84.3359 42.8633 83.4082 42.8633 81.6992V72.959H72.7949C84.3672 72.959 91.8379 66.3672 91.8379 55.918V51.6699C91.8379 49.6191 90.2754 48.0566 88.2246 48.0566Z" fill="black"/>
<path d="M11.6133 51.1816C13.6153 51.1816 15.1778 49.6191 15.1778 47.5683V43.8574C15.1778 37.6074 19.6699 33.3594 26.3106 33.3594H56.9746V42.2949C56.9746 44.0039 57.9512 44.9316 59.6602 44.9316C60.4414 44.9316 61.2227 44.6387 61.8086 44.1504L76.4082 31.8945C77.6778 30.8203 77.7754 29.209 76.4082 28.0859L61.8086 15.7812C61.2227 15.293 60.4414 15 59.6602 15C57.9512 15 56.9746 15.9277 56.9746 17.6367V26.2793H27.043C15.4707 26.2793 8 32.8711 8 43.3203V47.5683C8 49.6191 9.56248 51.1816 11.6133 51.1816Z" fill="black"/>
</svg>
