<svg width="100" height="100" viewBox="0 0 100 100" fill="none" xmlns="http://www.w3.org/2000/svg">
<path d="M11.3265 88.6735C17.653 95 27.8353 95 48.2 95H51.8C72.1647 95 82.3469 95 88.6735 88.6735C95 82.3469 95 72.1645 95 51.7998V48.1998C95 27.835 95 17.6526 88.6735 11.3261C82.3469 5 72.1647 5 51.8 5H48.2C27.8353 5 17.653 5 11.3265 11.3261C5 17.6526 5 27.835 5 48.1998V51.7998C5 72.1645 5 82.3471 11.3265 88.6735Z" fill="#0077FF"/>
<path fill-rule="evenodd" clip-rule="evenodd" d="M74.4851 64.821L68.4041 63.302C67.6719 63.092 67.1547 62.433 67.1286 61.6673L66.3698 39.2855C66.1503 36.3231 63.9513 33.9671 61.6532 33.2732C61.5243 33.2343 61.3865 33.2867 61.3101 33.3977C61.2324 33.5104 61.2624 33.6666 61.3708 33.7505C61.9382 34.1897 63.5 35.6232 63.5 38.0959L63.4955 67.3594C63.4955 70.185 60.8254 72.2574 58.0712 71.5694L51.8963 70.0268C51.2116 69.7872 50.7359 69.1497 50.711 68.4142L49.9521 46.0308C49.7327 43.0684 47.5337 40.7124 45.2356 40.0185C45.1067 39.9796 44.9688 40.032 44.8925 40.143C44.8149 40.2559 44.8448 40.412 44.9532 40.4958C45.5205 40.935 47.0824 42.3686 47.0824 44.8412L47.0779 69.2339L47.0813 69.2345V74.1076C47.0813 76.9332 44.4112 79.0056 41.657 78.3176L24.2154 73.9605C21.7905 73.3548 20.0903 71.1858 20.0903 68.6981L20.0903 39.3888C20.0903 36.5632 22.7604 34.4907 25.5146 35.1788L36.5045 37.924V32.6406C36.5045 29.815 39.1746 27.7425 41.9288 28.4304L52.9184 31.1758V25.8923C52.9184 23.0664 55.5885 20.9941 58.3427 21.6821L75.7843 26.0391C78.2091 26.6448 79.9094 28.814 79.9094 31.3018V60.6108C79.9094 63.4367 77.2392 65.509 74.4851 64.821Z" fill="white"/>
</svg>
