<svg width="100" height="100" viewBox="0 0 100 100" fill="none" xmlns="http://www.w3.org/2000/svg">
<path d="M47.4473 24.7988C47.9844 24.7988 48.2773 24.457 48.375 24.0176C49.5957 17.7187 49.498 17.6211 56.041 16.3516C56.5293 16.2539 56.8711 15.9609 56.8711 15.4238C56.8711 14.8867 56.5293 14.5937 56.041 14.4961C49.498 13.2266 49.5957 13.1289 48.375 6.8301C48.2773 6.3418 47.9844 6 47.4473 6C46.959 6 46.666 6.3418 46.5684 6.8301C45.2988 13.1289 45.4453 13.2266 38.9023 14.4961C38.4141 14.5937 38.0723 14.8867 38.0723 15.4238C38.0723 15.9609 38.4141 16.2539 38.9023 16.3516C45.4453 17.6211 45.2988 17.7187 46.5684 24.0176C46.666 24.457 46.959 24.7988 47.4473 24.7988Z" fill="black"/>
<path d="M29.1367 51.3125C29.918 51.3125 30.4551 50.7754 30.5527 49.9941C31.8711 39.7891 32.3105 39.7402 42.9063 37.6895C43.6387 37.5918 44.2246 37.0547 44.2246 36.2734C44.2246 35.4434 43.6387 34.9062 42.9063 34.8086C32.3105 33.4414 31.8223 32.9531 30.5527 22.5527C30.4551 21.7227 29.918 21.1855 29.1367 21.1855C28.3066 21.1855 27.7695 21.7227 27.6719 22.6016C26.5 32.8066 25.7676 32.8066 15.3184 34.8086C14.5859 34.9551 14 35.4434 14 36.2734C14 37.1035 14.5859 37.5918 15.5137 37.6895C25.8652 39.3008 26.5 39.6914 27.6719 49.8965C27.7695 50.7754 28.3066 51.3125 29.1367 51.3125Z" fill="black"/>
<path d="M55.0645 93.4023C56.0898 93.4023 56.9199 92.6699 57.1152 91.5469C59.9473 71.1855 63.0723 67.6211 83.3359 65.2285C84.5078 65.1309 85.3379 64.2519 85.3379 63.1777C85.3379 62.0547 84.5078 61.2246 83.3359 61.0781C63.0723 58.6855 59.9473 55.1699 57.1152 34.8086C56.9199 33.6367 56.0898 32.9043 55.0645 32.9043C53.9902 32.9043 53.1602 33.6367 53.0137 34.8086C50.1328 55.1699 47.0078 58.6855 26.7441 61.0781C25.5723 61.2246 24.791 62.0547 24.791 63.1777C24.791 64.2519 25.5723 65.1309 26.7441 65.2285C46.959 67.9629 50.0352 71.1855 53.0137 91.5469C53.1602 92.6699 53.9902 93.4023 55.0645 93.4023Z" fill="black"/>
</svg>
