<svg width="100" height="100" viewBox="0 0 100 100" fill="none" xmlns="http://www.w3.org/2000/svg">
<path fill-rule="evenodd" clip-rule="evenodd" d="M61.459 36.125H72.1524C75.6192 36.125 77.6699 38.0293 77.6699 41.7402V78.5078C77.6699 82.2187 75.6192 84.123 72.1524 84.123H28.5489C25.0332 84.123 23.0313 82.2187 23.0313 78.5078V41.7402C23.0313 38.0293 25.0332 36.125 28.5489 36.125H39.1934V29.0937H28.4512C20.1504 29.0937 16 33.1464 16 41.3496V78.8984C16 87.1015 20.1504 91.1543 28.4512 91.1543H72.25C80.5996 91.1543 84.7012 87.1015 84.7012 78.8984V41.3496C84.7012 33.1953 80.5996 29.0937 72.25 29.0937H61.459V36.125Z" fill="black"/>
<path d="M50.3262 8C48.4707 8 46.8594 9.5625 46.8594 11.3691V49.455L47.1524 55.2656L45.1992 53.166L39.7793 47.3066C39.1934 46.623 38.2656 46.2812 37.3867 46.2812C35.5801 46.2812 34.2617 47.5507 34.2617 49.3574C34.2617 50.2851 34.6035 50.9687 35.2871 51.6523L47.836 63.6152C48.7149 64.4941 49.4473 64.7871 50.3262 64.7871C51.2539 64.7871 51.9864 64.4941 52.8653 63.6152L65.4141 51.6523C66.0489 50.9687 66.4395 50.2851 66.4395 49.3574C66.4395 47.5507 65.0723 46.2812 63.2656 46.2812C62.3867 46.2812 61.5078 46.623 60.8731 47.3066L55.502 53.166L53.5489 55.2656L53.8418 49.455V11.3691C53.8418 9.5625 52.2305 8 50.3262 8Z" fill="black"/>
</svg>
