<svg width="100" height="100" viewBox="0 0 100 100" fill="none" xmlns="http://www.w3.org/2000/svg">
<path fill-rule="evenodd" clip-rule="evenodd" d="M39.1934 38.9825H28.5489C25.0332 38.9825 23.0313 40.8868 23.0313 44.5977V81.3164C23.0313 85.0274 25.0332 86.9316 28.5489 86.9316H72.1524C75.6192 86.9316 77.6699 85.0274 77.6699 81.3164V44.5977C77.6699 40.8868 75.6192 38.9825 72.1524 38.9825H61.459V31.9512H72.25C80.5996 31.9512 84.7012 36.0528 84.7012 44.2071V81.707C84.7012 89.9102 80.5996 93.9629 72.25 93.9629H28.4512C20.1504 93.9629 16 89.9102 16 81.707V44.2071C16 36.0039 20.1504 31.9512 28.4512 31.9512H39.1934V38.9825Z" fill="black"/>
<path d="M50.3262 63.6895C52.2305 63.6895 53.8418 62.1758 53.8418 60.3203V22.3321L53.5489 16.4727L55.502 18.5723L60.8731 24.4317C61.5078 25.1641 62.3867 25.4571 63.2656 25.4571C65.0723 25.4571 66.4395 24.1875 66.4395 22.4297C66.4395 21.502 66.0489 20.7696 65.4141 20.1348L52.8653 8.1719C51.9864 7.2442 51.2539 7 50.3262 7C49.4473 7 48.7149 7.2442 47.7871 8.1719L35.2871 20.1348C34.6035 20.7696 34.2617 21.502 34.2617 22.4297C34.2617 24.1875 35.5801 25.4571 37.3867 25.4571C38.2168 25.4571 39.1934 25.1641 39.7793 24.4317L45.1992 18.5723L47.1524 16.4727L46.8594 22.3321V60.3203C46.8594 62.1758 48.4707 63.6895 50.3262 63.6895Z" fill="black"/>
</svg>
