<svg width="100" height="100" viewBox="0 0 100 100" fill="none" xmlns="http://www.w3.org/2000/svg">
<path d="M23.4562 90.3965C25.2628 91.7637 27.4601 91.2266 30.0968 89.3223L49.9698 74.7227L69.8917 89.3223C72.4796 91.2266 74.6769 91.7637 76.4835 90.3965C78.2413 89.0782 78.5831 86.8321 77.5089 83.8047L69.6476 60.4161L89.7159 46.0118C92.3527 44.2051 93.4757 42.2032 92.7433 40.0547C92.0597 38.0039 90.0089 36.9786 86.7863 37.0274L62.1769 37.2227L54.7062 13.6875C53.7296 10.6114 52.2159 9 49.9698 9C47.7726 9 46.2589 10.6114 45.2335 13.6875L37.7628 37.2227L13.1534 37.0274C9.93076 36.9786 7.92879 38.0039 7.19637 40.0547C6.51278 42.2032 7.63583 44.2051 10.2238 46.0118L30.2921 60.4161L22.4308 83.8047C21.3566 86.8321 21.6984 89.0782 23.4562 90.3965ZM29.8527 81.6563C29.8038 81.5586 29.8038 81.5098 29.8527 81.3145L37.3234 60.2207C37.8605 58.6094 37.5675 57.3399 36.1027 56.3145L17.6456 43.7168C17.4991 43.5704 17.4503 43.5215 17.4991 43.4239C17.548 43.3262 17.5968 43.3262 17.7921 43.3262L40.1554 43.8145C41.8644 43.8633 42.9386 43.1797 43.4757 41.4707L49.7745 20.0352C49.8234 19.8399 49.8722 19.7911 49.9698 19.7911C50.0675 19.7911 50.1163 19.8399 50.1652 20.0352L56.464 41.4707C57.0011 43.1797 58.1241 43.8633 59.8331 43.8145L82.1476 43.3262C82.3429 43.3262 82.3917 43.3262 82.4406 43.4239C82.4894 43.5215 82.4406 43.5704 82.2941 43.7168L63.837 56.3145C62.3722 57.3399 62.0792 58.6094 62.6652 60.2207L70.087 81.3145C70.1359 81.5098 70.1359 81.5586 70.087 81.6563C70.0382 81.7539 69.9406 81.6563 69.7941 81.5586L52.0695 67.9356C50.7511 66.8614 49.2374 66.8614 47.8702 67.9356L30.1945 81.5586C30.048 81.6563 29.9503 81.7539 29.8527 81.6563Z" fill="black"/>
</svg>
