<svg width="100" height="100" viewBox="0 0 100 100" fill="none" xmlns="http://www.w3.org/2000/svg">
<path d="M49.6016 23.4785C51.6524 23.4785 53.3614 21.7207 53.3614 19.6699V11.7597C53.3614 9.709 51.6524 8 49.6016 8C47.502 8 45.793 9.709 45.793 11.7597V19.6699C45.793 21.7207 47.502 23.4785 49.6016 23.4785ZM68.0586 31.1933C69.5235 32.6582 71.9649 32.707 73.4786 31.1933L79.0938 25.6269C80.5098 24.1621 80.5098 21.6719 79.0938 20.207C77.6289 18.7422 75.1875 18.7422 73.7227 20.207L68.0586 25.8711C66.6426 27.2871 66.6426 29.7285 68.0586 31.1933ZM75.7246 49.6992C75.7246 51.75 77.4825 53.5078 79.5332 53.5078H87.3457C89.4453 53.5078 91.1543 51.75 91.1543 49.6992C91.1543 47.6484 89.4453 45.8906 87.3457 45.8906H79.5332C77.4825 45.8906 75.7246 47.6484 75.7246 49.6992ZM68.0586 68.2539C66.6426 69.7187 66.6426 72.1113 68.0586 73.5761L73.7227 79.2402C75.1875 80.7051 77.6289 80.6562 79.0938 79.1914C80.5098 77.7265 80.5098 75.2851 79.0938 73.8203L73.4297 68.2539C71.9649 66.789 69.5235 66.789 68.0586 68.2539ZM49.6016 75.9199C47.502 75.9199 45.793 77.6777 45.793 79.7285V87.6386C45.793 89.6894 47.502 91.3984 49.6016 91.3984C51.6524 91.3984 53.3614 89.6894 53.3614 87.6386V79.7285C53.3614 77.6777 51.6524 75.9199 49.6016 75.9199ZM31.0957 68.2539C29.6309 66.789 27.1407 66.789 25.6758 68.2539L20.1094 73.7715C18.6446 75.2363 18.6446 77.6777 20.0606 79.1426C21.5254 80.6074 23.9668 80.6562 25.4317 79.1914L31.0469 73.5761C32.5118 72.1113 32.5118 69.7187 31.0957 68.2539ZM23.4297 49.6992C23.4297 47.6484 21.7207 45.8906 19.6211 45.8906H11.8086C9.70898 45.8906 8 47.6484 8 49.6992C8 51.75 9.70898 53.5078 11.8086 53.5078H19.6211C21.7207 53.5078 23.4297 51.75 23.4297 49.6992ZM31.0469 31.1933C32.5118 29.7773 32.5118 27.2871 31.0957 25.8711L25.4805 20.207C24.0645 18.791 21.5743 18.7422 20.1582 20.207C18.6934 21.6719 18.6934 24.1621 20.1094 25.5781L25.6758 31.1933C27.1407 32.6582 29.5821 32.6582 31.0469 31.1933Z" fill="black"/>
<path d="M49.6016 69.5722C60.5391 69.5722 69.4746 60.6855 69.4746 49.6992C69.4746 38.7129 60.5391 29.8261 49.6016 29.8261C38.6153 29.8261 29.6797 38.7129 29.6797 49.6992C29.6797 60.6855 38.6153 69.5722 49.6016 69.5722Z" fill="black"/>
</svg>
