<svg width="100" height="100" viewBox="0 0 100 100" fill="none" xmlns="http://www.w3.org/2000/svg">
<path d="M29.2559 91.3242H69.7344C77.9375 91.3242 82.0391 87.1738 82.0391 78.873V44.8398C82.0391 39.4687 81.4532 37.125 78.084 33.6582L57.8203 12.9551C54.6465 9.6836 52.0098 9 47.3223 9H29.2559C21.0528 9 17 13.1504 17 21.4512V78.873C17 87.2226 21.0528 91.3242 29.2559 91.3242ZM29.5977 84.293C25.9356 84.293 24.0313 82.291 24.0313 78.7754V21.5488C24.0313 18.0332 25.9356 16.0312 29.6465 16.0312H46.1016V37.7598C46.1016 42.8379 48.6895 45.4258 53.7676 45.4258H74.959V78.7754C74.959 82.291 73.0547 84.293 69.3926 84.293H29.5977ZM54.5977 38.834C53.2305 38.834 52.6446 38.248 52.6446 36.8808V17.3496L73.6406 38.834H54.5977Z" fill="black"/>
<path d="M63.1426 55.0449H34.7735C33.211 55.0449 32.0391 56.168 32.0391 57.6328C32.0391 59.1465 33.211 60.3183 34.7735 60.3183H63.1426C64.6563 60.3183 65.7793 59.1465 65.7793 57.6328C65.7793 56.168 64.6563 55.0449 63.1426 55.0449ZM63.1426 68.3262H34.7735C33.211 68.3262 32.0391 69.498 32.0391 71.0117C32.0391 72.4765 33.211 73.5996 34.7735 73.5996H63.1426C64.6563 73.5996 65.7793 72.4765 65.7793 71.0117C65.7793 69.498 64.6563 68.3262 63.1426 68.3262Z" fill="black"/>
</svg>
