<svg width="100" height="100" viewBox="0 0 100 100" fill="none" xmlns="http://www.w3.org/2000/svg">
<path d="M38.5859 80.9258C36.9746 80.9258 35.8515 79.9492 35.7539 78.289L34.6797 36.7851C34.6308 35.1738 35.7051 34.1484 37.4629 34.1484C39.0742 34.1484 40.1972 35.125 40.2461 36.7851L41.3691 78.289C41.4179 79.9004 40.2949 80.9258 38.5859 80.9258ZM50.3047 80.9258C48.6445 80.9258 47.4238 79.9004 47.4238 78.289V36.7851C47.4238 35.1738 48.6445 34.1484 50.3047 34.1484C52.0136 34.1484 53.1855 35.1738 53.1855 36.7851V78.289C53.1855 79.9004 52.0136 80.9258 50.3047 80.9258ZM62.0234 80.9258C60.3144 80.9258 59.1914 79.9004 59.2402 78.289L60.4121 36.7851C60.4121 35.125 61.584 34.1484 63.1465 34.1484C64.9043 34.1484 65.9785 35.1738 65.9297 36.7851L64.8554 78.289C64.7578 79.9492 63.6836 80.9258 62.0234 80.9258ZM33.2636 25.0176H40.1972V16.8144C40.1972 14.8125 41.6133 13.4941 43.664 13.4941H56.8965C58.8984 13.4941 60.3144 14.8125 60.3144 16.8144V25.0176H67.2968V16.3261C67.2968 10.5644 63.5371 7 57.3847 7H43.1269C37.0234 7 33.2636 10.5644 33.2636 16.3261V25.0176ZM16.2227 28.4844H84.3867C86.1933 28.4844 87.6094 27.0195 87.6094 25.2129C87.6094 23.4062 86.1445 21.9414 84.3867 21.9414H16.2227C14.5137 21.9414 13 23.4062 13 25.2129C13 27.0195 14.5137 28.4844 16.2227 28.4844ZM32.6777 92.6933H67.9804C73.791 92.6933 77.5508 89.0801 77.8437 83.2207L80.3828 27.7031H20.2265L22.8144 83.2695C23.1074 89.1289 26.7695 92.6933 32.6777 92.6933Z" fill="black"/>
</svg>
