<svg width="100" height="100" viewBox="0 0 100 100" fill="none" xmlns="http://www.w3.org/2000/svg">
<path d="M39.0254 80.0957C40.6855 80.0957 41.7597 79.0703 41.7109 77.5566L40.5879 37.5176C40.539 35.9551 39.4648 34.9785 37.9023 34.9785C36.291 34.9785 35.1679 36.0039 35.2168 37.5176L36.3398 77.5566C36.3886 79.1191 37.4629 80.0957 39.0254 80.0957ZM50.3047 80.0957C51.9648 80.0957 53.0879 79.0703 53.0879 77.5566V37.5176C53.0879 36.0039 51.9648 34.9785 50.3047 34.9785C48.6445 34.9785 47.5215 36.0039 47.5215 37.5176V77.5566C47.5215 79.0703 48.6445 80.0957 50.3047 80.0957ZM61.6328 80.0957C63.1465 80.0957 64.2695 79.1191 64.3183 77.5566L65.3926 37.5176C65.4414 36.0039 64.3672 34.9785 62.707 34.9785C61.1445 34.9785 60.0703 36.0039 60.0215 37.5176L58.9472 77.5566C58.8984 79.0703 59.9726 80.0957 61.6328 80.0957ZM33.2636 25.0176H40.1972V16.8144C40.1972 14.8125 41.6133 13.4941 43.664 13.4941H56.8965C58.8984 13.4941 60.3144 14.8125 60.3144 16.8144V25.0176H67.2968V16.3261C67.2968 10.5644 63.5371 7 57.3847 7H43.1269C37.0234 7 33.2636 10.5644 33.2636 16.3261V25.0176ZM16.2227 28.4844H84.3867C86.1933 28.4844 87.6094 27.0195 87.6094 25.2129C87.6094 23.4062 86.1445 21.9414 84.3867 21.9414H16.2227C14.5137 21.9414 13 23.4062 13 25.2129C13 27.0195 14.5137 28.4844 16.2227 28.4844ZM32.6777 92.6933H67.9804C73.791 92.6933 77.5508 89.0801 77.8437 83.2207L80.3828 27.7519H73.4004L70.959 82.4883C70.8613 84.6855 69.3965 86.1504 67.248 86.1504H33.3125C31.2617 86.1504 29.748 84.6367 29.6504 82.4883L27.0625 27.7519H20.2265L22.8144 83.2695C23.1074 89.1289 26.7695 92.6933 32.6777 92.6933Z" fill="black"/>
</svg>
