<svg width="100" height="100" viewBox="0 0 100 100" fill="none" xmlns="http://www.w3.org/2000/svg">
<path d="M26.4512 85.1914H72.6914C81.041 85.1914 85.1426 81.0899 85.1426 72.8867V26.3047C85.1426 18.1016 81.041 14 72.6914 14H26.4512C18.1504 14 14 18.1016 14 26.3047V72.8867C14 81.0899 18.1504 85.1914 26.4512 85.1914ZM26.5489 78.1113C23.0332 78.1113 21.0313 76.207 21.0313 72.5449V26.6465C21.0313 22.9356 23.0332 21.0801 26.5489 21.0801H72.5938C76.1094 21.0801 78.1114 22.9356 78.1114 26.6465V72.5449C78.1114 76.207 76.1094 78.1113 72.5938 78.1113H26.5489Z" fill="black"/>
<path d="M39.1953 67.6133C41.4903 67.6133 43.0039 66.4903 43.541 64.3418L49.4004 41.2461H49.6934L55.5528 64.3418C56.0899 66.4903 57.6524 67.6133 59.8985 67.6133C62.1446 67.6133 63.6094 66.4414 64.1465 64.2442L71.7149 35.7285C71.8614 35.2403 71.9102 34.8496 71.9102 34.4102C71.9102 32.457 70.5918 31.1387 68.541 31.1387C66.4903 31.1387 65.5625 32.0664 64.9766 34.6055L59.6543 57.6524H59.3614L53.3067 33.9707C52.8184 32.0664 51.5977 31.1387 49.5469 31.1387C47.5449 31.1387 46.2754 32.0664 45.7871 33.9707L39.7324 57.6524H39.4883L34.166 34.6055C33.6289 32.0664 32.6524 31.1387 30.6016 31.1387C28.5996 31.1387 27.2813 32.457 27.2813 34.4102C27.2813 34.8496 27.3301 35.2403 27.4278 35.7285L34.9473 64.2442C35.5332 66.4414 36.9492 67.6133 39.1953 67.6133Z" fill="black"/>
</svg>
