<svg width="100" height="100" viewBox="0 0 100 100" fill="none" xmlns="http://www.w3.org/2000/svg">
<path d="M29.2559 91.3242H69.7344C77.9375 91.3242 82.0391 87.1738 82.0391 78.873V21.4512C82.0391 13.1015 77.9375 9 69.7344 9H60.3594C58.8457 9 57.8692 10.0254 57.8692 11.6367C57.8692 11.832 57.8692 12.0762 57.8692 12.2226C57.8692 17.2519 54.5489 20.1328 49.5196 20.1328C44.4903 20.1328 41.1211 17.2519 41.1211 12.2226C41.1211 12.0762 41.1211 11.832 41.1211 11.6367C41.1211 10.0254 40.1446 9 38.6309 9H29.2559C21.0528 9 17 13.1015 17 21.4512V78.873C17 87.1738 21.0528 91.3242 29.2559 91.3242ZM35.3594 38.248C33.7969 38.248 32.6739 37.0762 32.6739 35.5625C32.6739 34.0976 33.7969 32.9746 35.3594 32.9746H63.7285C65.2422 32.9746 66.3653 34.0976 66.3653 35.5625C66.3653 37.0762 65.2422 38.248 63.7285 38.248H35.3594ZM35.3594 51.6269C33.7969 51.6269 32.6739 50.4551 32.6739 48.9902C32.6739 47.4765 33.7969 46.3047 35.3594 46.3047H48.6406C50.1543 46.3047 51.2774 47.4765 51.2774 48.9902C51.2774 50.4551 50.1543 51.6269 48.6406 51.6269H35.3594Z" fill="black"/>
</svg>
