<svg width="100" height="100" viewBox="0 0 100 100" fill="none" xmlns="http://www.w3.org/2000/svg">
<path d="M81.8477 17.6387C77.6973 13.5372 71.8379 13 65.5879 13H33.8496C27.5996 13 21.7403 13.5372 17.5899 17.6387C13.4883 21.7891 13 27.5997 13 33.8497V65.5879C13 71.8868 13.4883 77.6485 17.5899 81.7989C21.7403 85.9004 27.5508 86.4375 33.8496 86.4375H65.5879C71.8379 86.4375 77.6973 85.9004 81.8477 81.7989C85.9492 77.6485 86.4375 71.8868 86.4375 65.5879V33.8497C86.4375 27.5508 85.9492 21.7891 81.8477 17.6387ZM79.4063 32.7754V66.6622C79.4063 70.2266 79.0156 74.377 76.7207 76.6719C74.4258 78.9668 70.2266 79.4063 66.6621 79.4063H32.7754C29.211 79.4063 25.0117 78.9668 22.7168 76.6719C20.4219 74.377 20.0313 70.2266 20.0313 66.6622V32.8243C20.0313 29.211 20.4219 25.0606 22.7168 22.7657C25.0117 20.4707 29.211 20.0313 32.8242 20.0313H66.6621C70.2266 20.0313 74.4258 20.4707 76.7207 22.7657C79.0156 25.0606 79.4063 29.211 79.4063 32.7754Z" fill="black"/>
<path d="M29.4551 72.1309H69.9336C71.4473 72.1309 72.6192 70.959 72.6192 69.4454C72.6192 67.9805 71.4473 66.8086 69.9336 66.8086H29.4551C27.9903 66.8086 26.7696 67.9805 26.7696 69.4454C26.7696 70.959 27.9903 72.1309 29.4551 72.1309ZM32.3848 43.1758H40.6856C44.0059 43.1758 46.3008 40.8809 46.3008 37.5606V31.7012C46.3008 28.3809 44.0059 26.086 40.6856 26.086H32.3848C29.0645 26.086 26.7696 28.3809 26.7696 31.7012V37.5606C26.7696 40.8809 29.0645 43.1758 32.3848 43.1758Z" fill="black"/>
</svg>
