<svg width="100" height="100" viewBox="0 0 100 100" fill="none" xmlns="http://www.w3.org/2000/svg">
<path d="M21.4551 76.2598H61.9336C63.4473 76.2598 64.6192 75.0879 64.6192 73.5743C64.6192 72.1094 63.4473 70.9375 61.9336 70.9375H21.4551C19.9903 70.9375 18.7696 72.1094 18.7696 73.5743C18.7696 75.0879 19.9903 76.2598 21.4551 76.2598ZM24.3848 47.3047H32.6856C36.0059 47.3047 38.3008 45.0098 38.3008 41.6895V35.8301C38.3008 32.5098 36.0059 30.2149 32.6856 30.2149H24.3848C21.0645 30.2149 18.7696 32.5098 18.7696 35.8301V41.6895C18.7696 45.0098 21.0645 47.3047 24.3848 47.3047Z" fill="black"/>
<path fill-rule="evenodd" clip-rule="evenodd" d="M78.4375 54.8655C77.2863 55.0313 76.1124 55.1172 74.9219 55.1172C73.7291 55.1172 72.5555 55.0344 71.4063 54.8744V70.7911C71.4063 74.3555 71.0156 78.5059 68.7207 80.8008C66.4258 83.0957 62.2266 83.5352 58.6621 83.5352H24.7754C21.211 83.5352 17.0117 83.0957 14.7168 80.8008C12.4219 78.5059 12.0313 74.3555 12.0313 70.7911V36.9532C12.0313 33.3399 12.4219 29.1895 14.7168 26.8946C17.0117 24.5996 21.211 24.1602 24.8242 24.1602H50.1496C50.7134 21.6606 51.6482 19.2962 52.8922 17.1289H25.8496C19.5996 17.1289 13.7403 17.6661 9.58988 21.7676C5.48828 25.918 5 31.7286 5 37.9786V69.7168C5 76.0157 5.48828 81.7774 9.58988 85.9278C13.7403 90.0293 19.5508 90.5665 25.8496 90.5665H57.5879C63.8379 90.5665 69.6973 90.0293 73.8477 85.9278C77.9492 81.7774 78.4375 76.0157 78.4375 69.7168V54.8655Z" fill="black"/>
</svg>
