<svg width="100" height="100" viewBox="0 0 100 100" fill="none" xmlns="http://www.w3.org/2000/svg">
<path d="M20.5304 80.3732C22.6364 82.4459 26.1847 82.3993 28.1642 80.4198L50.4596 58.0911L72.7573 80.4043C74.7656 82.4459 78.2851 82.4304 80.3578 80.3577C82.4304 78.2518 82.4459 74.7655 80.4043 72.7572L58.1067 50.444L80.4043 28.1797C82.4459 26.1381 82.4637 22.6185 80.3578 20.5459C78.2518 18.5065 74.7656 18.491 72.7573 20.4993L50.4596 42.797L28.1642 20.4838C26.1847 18.5376 22.6031 18.4577 20.5304 20.5303C18.491 22.6363 18.5376 26.1846 20.4838 28.1641L42.8125 50.444L20.4838 72.7727C18.5376 74.7189 18.4577 78.3006 20.5304 80.3732Z" fill="black"/>
</svg>
