<svg width="100" height="100" viewBox="0 0 100 100" fill="none" xmlns="http://www.w3.org/2000/svg">
<path d="M19.767 80.0485C22.1839 82.4411 26.3099 82.3679 28.556 80.1218L49.9183 58.7351L71.2562 80.0974C73.5755 82.4411 77.6283 82.4167 80.0209 80.0241C82.4134 77.6071 82.4379 73.5789 80.0941 71.2595L58.7562 49.8972L80.0941 28.5837C82.4379 26.24 82.4379 22.1873 80.0209 19.7947C77.6039 17.4265 73.5755 17.4021 71.2562 19.7214L49.9183 41.0593L28.556 19.697C26.3099 17.4753 22.1595 17.3777 19.767 19.7703C17.3988 22.1873 17.4721 26.3132 19.6937 28.5593L41.0804 49.8972L19.6937 71.2839C17.4721 73.5056 17.3744 77.656 19.767 80.0485Z" fill="black"/>
</svg>
