<svg width="100" height="100" viewBox="0 0 100 100" fill="none" xmlns="http://www.w3.org/2000/svg">
<path fill-rule="evenodd" clip-rule="evenodd" d="M89.8575 50.4043C89.8575 72.1328 72.1817 89.8086 50.4043 89.8086C28.6758 89.8086 11 72.1328 11 50.4043C11 28.6758 28.6758 11 50.4043 11C72.1817 11 89.8575 28.6758 89.8575 50.4043ZM33.9981 63.2461C33.9981 65.2969 35.6094 66.9082 37.5625 66.9082C38.5879 66.9082 39.5157 66.5664 40.1504 65.8828L50.4043 55.5312L60.7071 65.8828C61.3418 66.5664 62.2696 66.9082 63.2461 66.9082C65.2969 66.9082 66.9082 65.2969 66.9082 63.2461C66.9082 62.2695 66.5664 61.3906 65.834 60.707L55.5313 50.4531L65.8829 40.1016C66.6641 39.3691 66.9571 38.5391 66.9571 37.5625C66.9571 35.5605 65.3457 33.998 63.3438 33.998C62.4161 33.998 61.6348 34.3398 60.9024 35.0234L50.4043 45.4238L40.0528 35.0723C39.3692 34.4375 38.5879 34.0957 37.5625 34.0957C35.6094 34.0957 33.9981 35.6094 33.9981 37.6602C33.9981 38.5879 34.3887 39.4668 35.0235 40.1504L45.3262 50.4531L35.0235 60.7559C34.3887 61.4394 33.9981 62.3184 33.9981 63.2461Z" fill="black"/>
</svg>
