<svg width="100" height="100" viewBox="0 0 100 100" fill="none" xmlns="http://www.w3.org/2000/svg">
<path d="M20.117 79.1991C21.6795 80.7127 24.2185 80.7127 25.7322 79.1991L49.658 55.2244L73.6326 79.1991C75.0974 80.7127 77.6853 80.7127 79.199 79.1991C80.7127 77.6366 80.7127 75.0975 79.199 73.6326L55.2244 49.658L79.199 25.7322C80.7127 24.2186 80.7615 21.6307 79.199 20.117C77.6365 18.6522 75.0974 18.6522 73.6326 20.117L49.658 44.0916L25.7322 20.117C24.2185 18.6522 21.6306 18.6033 20.117 20.117C18.6522 21.6795 18.6522 24.2186 20.117 25.7322L44.0916 49.658L20.117 73.6326C18.6522 75.0975 18.6033 77.6854 20.117 79.1991Z" fill="black"/>
</svg>
