<svg width="100" height="100" viewBox="0 0 100 100" fill="none" xmlns="http://www.w3.org/2000/svg">
<path d="M26.4512 85.1914H72.6914C81.041 85.1914 85.1426 81.0899 85.1426 72.8867V26.3047C85.1426 18.1016 81.041 14 72.6914 14H26.4512C18.1504 14 14 18.1016 14 26.3047V72.8867C14 81.0899 18.1504 85.1914 26.4512 85.1914ZM26.5489 78.1113C23.0332 78.1113 21.0313 76.207 21.0313 72.5449V26.6465C21.0313 22.9356 23.0332 21.0801 26.5489 21.0801H72.5938C76.1094 21.0801 78.1114 22.9356 78.1114 26.6465V72.5449C78.1114 76.207 76.1094 78.1113 72.5938 78.1113H26.5489Z" fill="black"/>
<path d="M49.5957 67.125C51.8906 67.125 53.1114 65.6602 53.1114 63.2188V54.0879L63.5606 36.1192C63.9512 35.4844 64.1465 34.8008 64.1465 34.166C64.1465 32.4082 62.8282 31.0899 60.9727 31.0899C59.459 31.0899 58.6778 31.627 57.7989 33.2871L49.791 47.6426H49.5469L41.5391 33.2871C40.6114 31.5781 39.8301 31.0899 38.2188 31.0899C36.461 31.0899 35.0449 32.457 35.0449 34.0684C35.0449 34.752 35.2403 35.3867 35.6309 36.1192L46.1289 54.1856V63.2188C46.1289 65.5625 47.3496 67.125 49.5957 67.125Z" fill="black"/>
</svg>
